<svg xmlns="http://www.w3.org/2000/svg" xmlns:xlink="http://www.w3.org/1999/xlink" viewBox="0 0 360 360"><defs><style>.cls-1{fill:none;}.cls-2{fill:#fff;}.cls-3{clip-path:url(#clip-path);}.cls-4{fill:#dfdfe1;}</style><clipPath id="clip-path"><rect class="cls-1" x="100.72" y="159.33" width="117.3" height="55.08"/></clipPath></defs><title>Anabolix Derby Icon</title><g id="DERBY_ICON" data-name="DERBY ICON"><path class="cls-2" d="M74.9,115.39c-20.44,0-31.54-9.15-31.65-9.24a3.27,3.27,0,0,1-1.61-1.81c-.47-1.26-.23-2.85.71-4.73.26-.61.49-1.16.69-1.67.78-1.92,1.25-3.08,2.36-3.08a2.59,2.59,0,0,1,1.07.18l.1,0,0-.1s.38-1,2.13-1c1,0,1.9,1,3.2,2.27,3.35,3.37,9,9,23.62,9,1.63,0,3.36-.07,5.13-.21,23.75-1.83,37.39-10.46,37.52-10.54s8.17-16,11.58-16c4.87,0,8.38,7.62,8.41,7.7l0,.07,1.54-.46c-.88.82-3.65,3.24-5.34,3.24A16.05,16.05,0,0,0,126,91.7H126a20.35,20.35,0,0,0-4.23.68l-.09,0,0,.08a12.3,12.3,0,0,1-5.44,12.16c-14.43,7.13-28.33,10.75-41.3,10.75Z"/><path d="M129.78,78.52c4.81,0,8.29,7.57,8.33,7.65l.06.14.16,0,1.08-.33c-1.09,1-3.49,3-5,3A16.18,16.18,0,0,0,126,91.58a21.45,21.45,0,0,0-4.33.7l-.17,0,0,.17a12.24,12.24,0,0,1-5.38,12c-14.43,7.13-28.32,10.75-41.27,10.75-20.41,0-31.49-9.13-31.6-9.22l0,0h0a3.19,3.19,0,0,1-1.54-1.74c-.45-1.24-.22-2.8.71-4.67.27-.6.49-1.16.7-1.66.79-2,1.22-3,2.27-3a2.55,2.55,0,0,1,1,.17l.19.09.07-.2s.36-1,2-1c.91,0,1.84.94,3.13,2.24,3.36,3.39,9,9,23.69,9,1.64,0,3.36-.07,5.13-.21,23.78-1.83,37.44-10.47,37.57-10.55l0,0,0,0c2.79-5.52,8.78-16,11.46-16m0-.18c-3.51,0-11.63,16.06-11.63,16.06s-13.48,8.68-37.48,10.52c-1.82.15-3.52.22-5.12.22-20.6,0-23.39-11.29-26.82-11.29-1.85,0-2.22,1.1-2.22,1.1a2.75,2.75,0,0,0-1.11-.18c-1.47,0-1.84,1.85-3.13,4.8-2.59,5.17.92,6.65.92,6.65s11,9.27,31.72,9.27c11.07,0,24.92-2.65,41.36-10.78a12.33,12.33,0,0,0,5.47-12.25,20.47,20.47,0,0,1,4.34-.69,15.86,15.86,0,0,1,8.35-2.7c2.08,0,5.69-3.53,5.69-3.53l-1.84.55s-3.51-7.75-8.5-7.75Z"/><path d="M341.12,204c-.77,1.63-3.16,11.21-13.59,13.29-5.8,1.24-9,2-9,2L317,232.21l-25.25,12.41H271s-15.31-7.1-17.07-7.69-19.94-.52-22.55,0-3.65,4.43-3.65,4.43H32.07l-3.91-22s-10.1.33-9-12.41a6.23,6.23,0,0,1,.58-2s-10.62-28.6,4.76-58.06,14.31-30.49,15.17-40.72c.08-.92,1.29.92,3.51,0,0,0,25.9,21.82,73.08-1.51a12.33,12.33,0,0,0,5.47-12.25,20.47,20.47,0,0,1,4.34-.69,15.86,15.86,0,0,1,8.35-2.7c2.08,0,5.69-3.53,5.69-3.53a5.71,5.71,0,0,0,2.22,3.32c1.66.92,6.46,6.28,7.75,9.42,0,0,42.1,53.73,170,69.79,3.51.37,6.46,3.51,7.94,5.72a8.31,8.31,0,0,1,4.8,2.4c2.22,2.22,6.09,15.88,6.09,15.88l-.18.74,1.48,1.31s.6-.17.69.69.39,6.87.39,6.87S341.88,202.33,341.12,204Z"/><path class="cls-2" d="M49.6,149.66c1.7-7.41,7.26-14.41,7.82-15.11,10.42,5.16,18.3,9.27,23.44,12.21,13.14,7.51,20.71,12.14,22,12.92L81,165.09Z"/><path d="M57.45,134.66c10.37,5.15,18.23,9.25,23.36,12.18,12.6,7.2,20.07,11.75,21.78,12.8L81,165,49.71,149.61c1.67-7.19,7-14,7.74-15m-.05-.23s-6.12,7.37-7.9,15.29L81,165.19l22-5.48s-7.62-4.72-22.16-13c-6-3.43-15-8-23.5-12.25Z"/><path class="cls-2" d="M26.86,138.5l7.43-15.15,12.09,5.78c-2.75,2.31-8.09,13.52-8.65,14.71Z"/><path d="M34.34,123.47l11.87,5.69c-2.74,2.46-7.79,13-8.52,14.55L27,138.45l7.36-15m-.09-.25-7.52,15.32L37.78,144s5.95-12.69,8.77-14.85l-12.3-5.89Z"/><rect class="cls-2" x="127.61" y="112.24" width="11.48" height="18" transform="translate(-46.23 136.48) rotate(-47.13)"/><path d="M130.66,111l13.06,12.12L136,131.44l-13-12.12,7.68-8.28m0-.26-7.93,8.55L136,131.7l7.94-8.55-13.33-12.37Z"/><rect x="296.42" y="237.01" width="12.25" height="15.27" transform="translate(397.08 -132.78) rotate(65.1)"/><path d="M283.87,264.89c-.22-3.12,14.47-27.24,45.75-21.51,5.86,1.24,11.18,14.86,11.91,16.95s-.57,7.69-21.69,18.5-29.19,7.82-30.75,5.35S284.26,270.49,283.87,264.89Z"/><path class="cls-2" d="M144.94,113a4.31,4.31,0,0,1-2.49-7.84l11-9.29,5.56,6.57-11.07,9.39a4.38,4.38,0,0,1-.34.29l0,0-.06,0A4.3,4.3,0,0,1,144.94,113Z"/><path d="M153.37,96.26l5.21,6.15-10.88,9.23-.33.27h0l-.08.06a4,4,0,0,1-2.35.76,4,4,0,0,1-2.29-7.37l10.72-9.1m.07-.78-11.15,9.45a4.6,4.6,0,1,0,5.33,7.49h0l.11-.1a3.17,3.17,0,0,0,.35-.29l11.28-9.57-5.92-7Z"/><path class="cls-2" d="M317.78,182a4.3,4.3,0,0,1-4.18-5.4l2.14-12.85,8.47,1.53-2.14,12.9c0,.15-.05.29-.08.43v.06l0,.07a4.3,4.3,0,0,1-4.18,3.26Z"/><path d="M316,164.09l7.93,1.44-2.11,12.65c0,.13,0,.26-.07.41h0l0,.09a4,4,0,0,1-1.3,2.1,4,4,0,0,1-5.7-.47,4.1,4.1,0,0,1-.81-3.68L316,164.09m-.45-.65-2.19,13.11a4.6,4.6,0,0,0,7.42,4.66,4.53,4.53,0,0,0,1.48-2.39h0l0-.14a3.54,3.54,0,0,0,.08-.45l2.19-13.16-9-1.64Z"/><path class="cls-2" d="M297.63,177.43a4.31,4.31,0,0,1-4.18-5.4l2.05-11.51,8.35,1.47-1.94,11.61a2.58,2.58,0,0,1-.07.43v.06l0,.07a4.31,4.31,0,0,1-4.18,3.27Z"/><path d="M295.72,160.84l7.81,1.37-1.89,11.37c0,.13,0,.26-.07.42h0l0,.1a4,4,0,0,1-1.3,2.1,4.09,4.09,0,0,1-2.61,1,4,4,0,0,1-3.09-1.43,4.1,4.1,0,0,1-.82-3.66l2-11.22m-.44-.64L293.18,172a4.59,4.59,0,0,0,7.41,4.66,4.52,4.52,0,0,0,1.49-2.39h0l0-.14c0-.15.06-.29.08-.44l2-11.89-8.89-1.56Z"/><path class="cls-2" d="M276.57,172.84a4.32,4.32,0,0,1-4.18-5.41l2-11.29,8.26,1.92L280.86,169c0,.15,0,.29-.07.43v.06l0,.07a4.28,4.28,0,0,1-1.4,2.24A4.33,4.33,0,0,1,276.57,172.84Z"/><path d="M274.64,156.47l7.73,1.81L280.58,169a4.07,4.07,0,0,1-.07.42h0l0,.09a4,4,0,0,1-7,1.63,4.07,4.07,0,0,1-.82-3.67l2-11m-.45-.67-2.07,11.56a4.59,4.59,0,0,0,4.45,5.75,4.59,4.59,0,0,0,4.45-3.47h0l0-.14c0-.15.05-.3.07-.45l1.87-11.2-8.81-2Z"/><path class="cls-2" d="M255.82,168.18a4.32,4.32,0,0,1-4.11-5.64l2.6-11.52,8.31,2.3-2.55,11.27c0,.15-.06.29-.09.43l0,0,0,.07a4.31,4.31,0,0,1-4.12,3Z"/><path d="M254.51,151.36l7.78,2.15-2.49,11.05c0,.13-.06.26-.1.41h0l0,.09a4,4,0,1,1-7.68-2.48l2.52-11.22m-.41-.69-2.66,11.78a4.63,4.63,0,0,0,.71,4.17,4.59,4.59,0,0,0,8-1.39h0l0-.14a3.13,3.13,0,0,0,.1-.44l2.6-11.53-8.84-2.45Z"/><path class="cls-2" d="M235.67,162.38a4.32,4.32,0,0,1-4-5.87L235,144.83l8.17,2.77L239.87,159a2.45,2.45,0,0,1-.12.41v.06l0,.07a4.32,4.32,0,0,1-4,2.8Z"/><path d="M235.17,145.19l7.64,2.59L239.6,159a2.88,2.88,0,0,1-.12.4h0l0,.09a4,4,0,0,1-3.78,2.62,4,4,0,0,1-3.36-1.79,4.09,4.09,0,0,1-.4-3.74l3.26-11.38m-.37-.71-3.42,11.93a4.6,4.6,0,0,0,4.29,6.25,4.52,4.52,0,0,0,2.55-.78,4.57,4.57,0,0,0,1.75-2.2h0l0-.14a3,3,0,0,0,.12-.43l3.34-11.69-8.68-2.94Z"/><path class="cls-2" d="M216.39,155.75a4.32,4.32,0,0,1-3.84-6.29L217.22,138l8,3.25-4.72,11.64a3.89,3.89,0,0,1-.17.41l0,.05,0,.07a4.37,4.37,0,0,1-3.86,2.38Z"/><path d="M217.37,138.31l7.46,3-4.63,11.41a3,3,0,0,1-.16.4h0l0,.08a4,4,0,1,1-7.18-3.7l4.55-11.23m-.31-.72-4.76,11.74a4.6,4.6,0,0,0,6.22,6.17,4.55,4.55,0,0,0,2-2h0l.06-.13a2.9,2.9,0,0,0,.16-.41l4.83-11.9-8.49-3.46Z"/><path class="cls-2" d="M198.25,147.44a4.31,4.31,0,0,1-3.74-6.47l5.18-11.2,7.76,3.72-5.2,11.24a2.43,2.43,0,0,1-.18.4l0,.05,0,.07a4.31,4.31,0,0,1-3.76,2.19Z"/><path d="M199.82,130.14l7.27,3.48-5.1,11a3.17,3.17,0,0,1-.18.38h0l0,.08a4,4,0,1,1-7-4l5-10.93m-.26-.74-5.29,11.43a4.59,4.59,0,0,0,4,6.89,4.61,4.61,0,0,0,4-2.34h0l.06-.13c.07-.14.13-.27.19-.41l5.31-11.49-8.26-4Z"/><path class="cls-2" d="M179.55,137.72A4.32,4.32,0,0,1,176,131l6.18-11.3,7.35,4.5-6,11.06c-.07.14-.14.26-.21.38l0,0,0,.07a4.33,4.33,0,0,1-3.61,1.95Z"/><path d="M182.24,120.09l6.87,4.22-5.93,10.85a2.72,2.72,0,0,1-.2.37h0l0,.08a4.1,4.1,0,0,1-3.38,1.84,4.05,4.05,0,0,1-3.34-6.33l6-11m-.21-.77-6.31,11.54a4.6,4.6,0,0,0,3.83,7.14,4.61,4.61,0,0,0,3.84-2.08h0l.07-.12a3,3,0,0,0,.21-.4l6.17-11.29L182,119.32Z"/><path class="cls-2" d="M161.81,126.23a4.32,4.32,0,0,1-3.18-7.24l7.62-10.54,6.85,5.22-7.73,10.68a3,3,0,0,1-.26.34l0,0-.06.05a4.26,4.26,0,0,1-2.28,1.34A4.9,4.9,0,0,1,161.81,126.23Z"/><path d="M166.31,108.85l6.41,4.88-7.58,10.47a3.1,3.1,0,0,1-.26.34h0l-.06.07a4,4,0,0,1-2.14,1.24,3.69,3.69,0,0,1-.87.1,4,4,0,0,1-3-6.77l0,0v0l7.44-10.28m-.11-.79-7.77,10.75a4.59,4.59,0,0,0,3.38,7.69,4.75,4.75,0,0,0,1-.1,4.6,4.6,0,0,0,2.43-1.42h0l.08-.11a3.44,3.44,0,0,0,.28-.36l7.88-10.89-7.28-5.56Z"/><g id="Anabolix_Crown" data-name="Anabolix Crown"><g class="cls-3"><g class="cls-3"><path class="cls-2" d="M203.52,182.23a57.62,57.62,0,0,1-9,.53l-.08-.18a20,20,0,0,1-4.83-6.54c-2.09-4.35-2-6.06-3.36-6.33s-3.19,1.88-6.5,3.82a54.58,54.58,0,0,1-8,3.53c-8-4-11-8.61-11-8.61a1.9,1.9,0,0,0-1.42-.82,1.79,1.79,0,0,0-1.27.53,35,35,0,0,1-11.13,8.9,52.58,52.58,0,0,1-7.67-3.5c-3.29-2-5.11-4.15-6.47-3.89s-1.29,2-3.42,6.3a19.92,19.92,0,0,1-4.89,6.49,60.45,60.45,0,0,1-13-.93s-2.61-.18-2.93.72a.92.92,0,0,0,.32,1.22s4.4,1.46,11.24,8.14,8,22.5,8,22.5,0-.05,0-.14c.37-.18,12-5.54,31.46-5.17,19.6.39,30.79,5.45,31,5.55a.28.28,0,0,1,0,.06s.19-1,.55-3.62.74-10.54,6.23-17.63,9.41-8.22,10.78-8.95,2.51-1,1.93-2.17-2.69-.12-6.6.19m-23-5.86c4.79-2.21,4.82-2.5,4.82-2.5a20.88,20.88,0,0,0,4.34,5.89,26.31,26.31,0,0,0,4.13,3,65.73,65.73,0,0,1-14-2.63,49.14,49.14,0,0,1-6.87-2.52,14.54,14.54,0,0,0,7.61-1.2m-21.59.67h0l8,18.56H151Zm-29.51,2.65a20.72,20.72,0,0,0,4.4-5.84s0,.29,4.8,2.54a14.6,14.6,0,0,0,7.16,1.32,42.21,42.21,0,0,1-7.9,2.91,58.88,58.88,0,0,1-12.29,1.8,26.44,26.44,0,0,0,3.83-2.73m-3.94,17.68a29.7,29.7,0,0,0-9.91-12.84A48,48,0,0,0,141,183a58.14,58.14,0,0,0,12.39-6.09l-13.64,30.64a2.72,2.72,0,0,0-.17.57c-7.74,2.42-11.21,5.63-11.45,5.86a37.54,37.54,0,0,0-2.71-16.59m34,8a72.65,72.65,0,0,0-12.87,1.06l2.9-6.9h19.09l3,6.84a71.92,71.92,0,0,0-12.09-1m34.61-9.59c-4.48,7.45-3.53,17.61-3.43,18.55-.13-.14-3.64-3.62-11.75-6.21a2.9,2.9,0,0,0-.17-.57l-13.53-30.39a48.38,48.38,0,0,0,14.1,6c15.45,4.15,23.64,1.7,23.64,1.7s-4.15,3.06-8.86,10.88"/><path class="cls-2" d="M104.38,177.19a3.67,3.67,0,1,0,3.67,3.66,3.66,3.66,0,0,0-3.67-3.66m1,6.52a2.19,2.19,0,1,1,2.18-2.18,2.19,2.19,0,0,1-2.18,2.18"/><path class="cls-2" d="M214.35,177.19a3.67,3.67,0,1,0,3.66,3.66,3.66,3.66,0,0,0-3.66-3.66m-1,6.52a2.19,2.19,0,1,1,2.19-2.18,2.19,2.19,0,0,1-2.19,2.18"/><path class="cls-2" d="M129.16,169.2a3.66,3.66,0,1,0-1.93-4.81,3.66,3.66,0,0,0,1.93,4.81m.08-3.22a2.19,2.19,0,1,1,1.15,2.87,2.18,2.18,0,0,1-1.15-2.87"/><path class="cls-2" d="M190,169.28a3.67,3.67,0,1,0-4.79-2,3.67,3.67,0,0,0,4.79,2m-2.91-4.4a2.18,2.18,0,1,1-1.17,2.86,2.19,2.19,0,0,1,1.17-2.86"/><path class="cls-2" d="M161.8,165.43a3.66,3.66,0,1,0-5.17.3,3.66,3.66,0,0,0,5.17-.3m-4.07-2.73a2.18,2.18,0,1,1,.18,3.09,2.18,2.18,0,0,1-.18-3.09"/></g></g></g><path d="M55.92,248a24.76,24.76,0,1,0,24.76,24.76A24.75,24.75,0,0,0,55.92,248Zm1.62,1.64a23.13,23.13,0,0,1,13.7,5.72L59,258.2h0a14.79,14.79,0,0,0-7.16.26Zm-1.62,13.08a10,10,0,1,1-10,10A10,10,0,0,1,55.92,262.69Zm0,24.87a14.8,14.8,0,0,0,5-.86l-5.07,9.21a23.09,23.09,0,0,1-14.1-4.84l11.91-3.68A15.32,15.32,0,0,0,55.92,287.56Zm8.61-2.75a14.89,14.89,0,0,0,4.72-5.57L72,289.41a23.07,23.07,0,0,1-13.5,6.35Zm6-9.46a15.11,15.11,0,0,0,.23-2.62,15,15,0,0,0-.73-4.62l9.06,5.41a23.09,23.09,0,0,1-5.27,14Zm-2.32-11a14.8,14.8,0,0,0-5.36-4.79l10.29-2.41A23.06,23.06,0,0,1,79,270.86ZM54.88,249.57l-6.82,10.57h0a15,15,0,0,0-5.88,7l-3.45-9.93A23.11,23.11,0,0,1,54.88,249.57Zm-17.81,9.67,4.11,11.82a15.28,15.28,0,0,0-.1,1.67,14.72,14.72,0,0,0,1,5.45l-9.37-4.73c0-.24,0-.48,0-.72A23,23,0,0,1,37.07,259.24ZM33,276.08l11.14,5.64a14.9,14.9,0,0,0,5.66,4.52l-10,3.09A23.08,23.08,0,0,1,33,276.08Z"/><path class="cls-4" d="M55.92,308.09a35.36,35.36,0,1,1,35.36-35.36A35.4,35.4,0,0,1,55.92,308.09Zm0-60.22a24.86,24.86,0,1,0,24.85,24.86A24.88,24.88,0,0,0,55.92,247.87Z"/><path d="M55.92,237.46a35.27,35.27,0,1,1-35.27,35.27,35.31,35.31,0,0,1,35.27-35.27m0,60.21a24.95,24.95,0,1,0-25-24.94,25,25,0,0,0,25,24.94m0-60.39a35.45,35.45,0,1,0,35.45,35.45,35.45,35.45,0,0,0-35.45-35.45Zm0,60.21a24.76,24.76,0,1,1,24.76-24.76,24.76,24.76,0,0,1-24.76,24.76Z"/><g id="Horizontal_Logo_All_Black" data-name="Horizontal Logo All Black"><path d="M51.19,244.84l-1.14.2-.48-2.47v-.11a.87.87,0,0,1,.11-.49,1.05,1.05,0,0,1,.42-.32l.17-.05.29-.06c.73-.12,1.1-.17,1.84-.24a1.1,1.1,0,0,1,.41,0,1,1,0,0,1,.33.18.71.71,0,0,1,.3.54c.08,1,.11,1.51.19,2.53-.46,0-.69.05-1.15.11l-.14-1.29c-.54.06-.81.09-1.34.18Zm-.31-2c.54-.09.82-.12,1.36-.19l-.05-.47-1.39.19Z"/><path d="M55.12,244.48l-1.15.05-.21-3.35c.65,0,1-.05,1.62-.06.57.65.83,1,1.34,1.67,0-.67,0-1,0-1.67.52,0,.77,0,1.28.06l-.21,3.35-1.15-.05a27,27,0,0,0-1.61-2.17Z"/><path d="M59.33,244.66l-1.15-.11.19-2.51,0-.11a.85.85,0,0,1,.24-.44,1.07,1.07,0,0,1,.49-.19h.18l.29,0c.74.08,1.11.13,1.84.25a1.19,1.19,0,0,1,.39.13,1,1,0,0,1,.28.26.73.73,0,0,1,.14.59c-.2,1-.3,1.5-.49,2.49l-1.14-.2.2-1.28c-.53-.08-.8-.12-1.33-.18Zm.23-2c.54.06.82.1,1.36.18l.08-.46c-.56-.09-.83-.13-1.39-.19Z"/><path d="M64.56,245.73c-1-.29-1.47-.41-2.47-.62l.69-3.3a25.84,25.84,0,0,1,3.11.81,1.11,1.11,0,0,1,.59.38.6.6,0,0,1,.16.54l-.15.44-.06.08-.13.11-.12.08-.18.06-.08,0h-.06a.78.78,0,0,1,.26.41c0,.06,0,.11,0,.15a.28.28,0,0,1,0,.1l-.15.43a.51.51,0,0,1-.19.25,1.4,1.4,0,0,1-.4.15,1.66,1.66,0,0,1-.44,0l-.15,0-.14,0Zm-.85-2.31c.59.14.89.22,1.48.4l.14-.46c-.6-.18-.9-.26-1.51-.41C63.78,243.13,63.75,243.23,63.71,243.42Zm-.28,1.1c.58.14.86.22,1.43.39l.15-.51c-.57-.18-.86-.25-1.45-.4Z"/><path d="M66.4,245.42l0-.08c.19-.56.29-.84.49-1.39a.68.68,0,0,1,.13-.24.86.86,0,0,1,.58-.33,1.32,1.32,0,0,1,.71.1c.69.27,1,.42,1.71.73l.06,0a1.57,1.57,0,0,1,.77.61.75.75,0,0,1,0,.71l-.76,1.49a1.36,1.36,0,0,1-.12.17,1.1,1.1,0,0,1-.21.14,1.23,1.23,0,0,1-.46.11,1,1,0,0,1-.46-.12c-.78-.36-1.17-.53-2-.84a.79.79,0,0,1-.24-.15.82.82,0,0,1-.27-.39,1,1,0,0,1,0-.55m1.12.41c.61.24.91.37,1.5.65.28-.59.41-.88.68-1.47-.62-.29-.94-.42-1.58-.68Z"/><path d="M72.76,249.57A26,26,0,0,0,70,248l1.56-3c.47.24.7.37,1.15.63-.5.87-.74,1.3-1.24,2.16.7.41,1,.62,1.73,1.08Z"/><path d="M73.85,250.34c-.39-.29-.59-.43-1-.69l1.88-2.79c.44.3.66.45,1.09.77Z"/><path d="M75,251.24,74,250.41c.71-.3,1.08-.44,1.82-.71.09-.79.13-1.19.18-2,.48.36.72.55,1.18.93-.1.59-.16.88-.29,1.46l.27.23c.58-.19.88-.28,1.48-.44.45.42.68.63,1.11,1.07-.79.15-1.18.24-2,.44-.14.79-.23,1.18-.41,1.94-.4-.39-.6-.59-1-1,.13-.6.19-.9.29-1.5l-.25-.22C75.82,250.89,75.55,251,75,251.24Z"/><path d="M45.71,243.89c-.28.12-.62.29-1.19.49l0,0a2.78,2.78,0,0,1-.93-.45c-.47-.35-.54-.54-.74-.49s-.36.39-.72.79a5,5,0,0,1-.9.88,2.93,2.93,0,0,1-1.92-.11.31.31,0,0,0-.38.17,3.4,3.4,0,0,1-.91,1.77,5.17,5.17,0,0,1-1.19.3c-.54.1-.92.07-1.07.22s0,.3,0,.9a2.77,2.77,0,0,1-.12,1,4.57,4.57,0,0,1-1.57,1.19s-.3.25-.27.36a.1.1,0,0,0,.13.07,4.4,4.4,0,0,1,1.88-.39A4,4,0,0,1,38.3,252h0a7.94,7.94,0,0,1,3.14-2.81A7.92,7.92,0,0,1,45.34,248h0s0-.11-.09-.41a3.31,3.31,0,0,1,.07-2.21,3.11,3.11,0,0,1,1.1-1.46c.16-.14.31-.22.19-.32s-.37.09-.9.3m-3.37.58a4.43,4.43,0,0,0,.54-.55,2.76,2.76,0,0,0,.85.39c.28.06.69.1.69.1s-1.11.32-2,.5c-.38.08-1,.16-1,.16a3.93,3.93,0,0,0,1-.6M39.52,246h0c.84.51,1.25.78,2,1.33-.79.41-1.17.63-1.93,1.1C39.56,247.46,39.54,247,39.52,246ZM36,248.69a2.77,2.77,0,0,0,.13-.95,3.76,3.76,0,0,0,.77-.18,4.72,4.72,0,0,0,1-.48s-.48.62-.79.94c-.46.48-1.35,1.27-1.35,1.27a5,5,0,0,0,.26-.6m.81,2a3.43,3.43,0,0,0-2.07-.22A12.17,12.17,0,0,0,37.64,248a14.69,14.69,0,0,0,1.17-1.59,29.89,29.89,0,0,0,.3,4s0,0,0,.06a5.07,5.07,0,0,1-.83,1.46,3.93,3.93,0,0,0-1.47-1.29m4.39-1.85a8.71,8.71,0,0,0-1.42,1c0-.35-.06-.53-.09-.89A23.35,23.35,0,0,1,42,247.63c.29.2.43.31.71.52a9.07,9.07,0,0,0-1.48.66m3.78-3a3.45,3.45,0,0,0,.35,2.17,5.39,5.39,0,0,1-1.69-.07s0,0,0,0a30.85,30.85,0,0,0-3.26-2.32,10.81,10.81,0,0,0,2.16-.28,12.42,12.42,0,0,0,3.22-1.06,4.23,4.23,0,0,0-.74,1.61"/><path d="M32.92,251a.51.51,0,0,0-.1.7.51.51,0,0,0,.69-.09.44.44,0,1,0-.59-.61m.64.43a.31.31,0,0,1-.42,0,.29.29,0,0,1,.07-.41.26.26,0,1,1,.35.36"/><path d="M47,242.88a.48.48,0,0,0-.39.55.54.54,0,0,0,1-.28.48.48,0,0,0-.63-.27m.07.77a.3.3,0,0,1-.37-.16.28.28,0,0,1,.23-.33.28.28,0,0,1,.37.16.29.29,0,0,1-.23.33"/><path d="M35.24,247.74a.66.66,0,0,0,.47-.63c0-.24-.28-.37-.57-.26a.67.67,0,0,0-.48.64c0,.25.3.36.58.25m-.21-.3a.4.4,0,0,1,.28-.38c.17-.06.33,0,.34.16a.41.41,0,0,1-.28.38c-.17.06-.32,0-.34-.16"/><path d="M43.33,243.16c.23-.19.27-.47.08-.63a.64.64,0,0,0-.77.07.38.38,0,0,0-.07.62.62.62,0,0,0,.76-.06m-.6-.31a.38.38,0,0,1,.46,0,.23.23,0,0,1,0,.37.38.38,0,0,1-.45,0,.24.24,0,0,1,0-.38"/><path d="M39.25,244.6a.35.35,0,0,0-.33-.5.73.73,0,0,0-.7.43.36.36,0,0,0,.35.5.73.73,0,0,0,.68-.43m-.71,0a.43.43,0,0,1,.41-.26.21.21,0,0,1,.2.3.43.43,0,0,1-.41.25.21.21,0,0,1-.2-.29"/></g><path d="M245.23,248A24.76,24.76,0,1,0,270,272.73,24.76,24.76,0,0,0,245.23,248Zm1.62,1.64a23.08,23.08,0,0,1,13.7,5.72l-12.27,2.87h0a14.79,14.79,0,0,0-7.16.26Zm-1.62,13.08a10,10,0,1,1-10,10A10,10,0,0,1,245.23,262.69Zm0,24.87a14.85,14.85,0,0,0,5-.86l-5.07,9.21a23.14,23.14,0,0,1-14.11-4.84L243,287.39A15.18,15.18,0,0,0,245.23,287.56Zm8.62-2.75a15,15,0,0,0,4.71-5.57l2.76,10.17a23.1,23.1,0,0,1-13.51,6.35Zm6-9.46a15.11,15.11,0,0,0,.23-2.62,14.66,14.66,0,0,0-.74-4.62l9.07,5.41a23.1,23.1,0,0,1-5.28,14Zm-2.33-11a14.85,14.85,0,0,0-5.35-4.79l10.28-2.41a23.13,23.13,0,0,1,5.9,13.66ZM244.2,249.57l-6.82,10.57h0a14.9,14.9,0,0,0-5.88,7l-3.45-9.93A23.09,23.09,0,0,1,244.2,249.57Zm-17.82,9.67,4.11,11.82a15.3,15.3,0,0,0-.09,1.67,14.72,14.72,0,0,0,1,5.45l-9.37-4.73c0-.24,0-.48,0-.72A23.11,23.11,0,0,1,226.38,259.24Zm-4.08,16.84,11.13,5.64a14.93,14.93,0,0,0,5.67,4.52l-10,3.09A23.08,23.08,0,0,1,222.3,276.08Z"/><path class="cls-4" d="M245.23,308.09a35.36,35.36,0,1,1,35.36-35.36A35.4,35.4,0,0,1,245.23,308.09Zm0-60.22a24.86,24.86,0,1,0,24.86,24.86A24.88,24.88,0,0,0,245.23,247.87Z"/><path d="M245.23,237.46A35.27,35.27,0,1,1,210,272.73a35.31,35.31,0,0,1,35.26-35.27m0,60.21a24.95,24.95,0,1,0-24.94-24.94,25,25,0,0,0,24.94,24.94m0-60.39a35.45,35.45,0,1,0,35.45,35.45,35.45,35.45,0,0,0-35.45-35.45Zm0,60.21A24.76,24.76,0,1,1,270,272.73a24.77,24.77,0,0,1-24.76,24.76Z"/><g id="Horizontal_Logo_All_Black-2" data-name="Horizontal Logo All Black"><path d="M240.51,244.84c-.46.07-.69.11-1.14.2-.2-1-.29-1.48-.49-2.47v-.11A.87.87,0,0,1,239,242a1.05,1.05,0,0,1,.42-.32.58.58,0,0,1,.17-.05l.29-.06c.73-.12,1.1-.17,1.84-.24a1,1,0,0,1,.4,0,1,1,0,0,1,.34.18.67.67,0,0,1,.29.54l.2,2.53c-.46,0-.69.05-1.15.11l-.15-1.29c-.53.06-.8.09-1.33.18Zm-.32-2c.55-.09.82-.12,1.37-.19l-.05-.47-1.39.19Z"/><path d="M244.44,244.48l-1.15.05c-.09-1.34-.13-2-.22-3.35.65,0,1-.05,1.63-.06.56.65.83,1,1.34,1.67l0-1.67c.51,0,.77,0,1.28.06l-.21,3.35-1.15-.05c-.61-.88-.93-1.32-1.62-2.17C244.4,243.18,244.42,243.61,244.44,244.48Z"/><path d="M248.65,244.66l-1.15-.11c.07-1,.11-1.5.19-2.51l0-.11a.85.85,0,0,1,.24-.44,1.07,1.07,0,0,1,.49-.19h.18l.29,0c.73.08,1.1.13,1.84.25a1.13,1.13,0,0,1,.38.13.84.84,0,0,1,.28.26.66.66,0,0,1,.14.59c-.19,1-.29,1.5-.49,2.49l-1.13-.2.2-1.28c-.54-.08-.8-.12-1.34-.18C248.73,243.89,248.7,244.15,248.65,244.66Zm.22-2c.55.06.82.1,1.37.18l.07-.46c-.55-.09-.83-.13-1.38-.19Z"/><path d="M253.87,245.73c-1-.29-1.47-.41-2.46-.62.27-1.32.41-2,.69-3.3a26.34,26.34,0,0,1,3.11.81,1,1,0,0,1,.58.38.6.6,0,0,1,.16.54l-.15.44-.05.08-.14.11-.12.08-.17.06-.09,0h-.06a.89.89,0,0,1,.27.41.49.49,0,0,1,0,.15.16.16,0,0,1,0,.1l-.14.43a.53.53,0,0,1-.2.25,1.32,1.32,0,0,1-.39.15,1.73,1.73,0,0,1-.45,0l-.14,0-.15,0Zm-.85-2.31c.6.14.89.22,1.48.4l.14-.46c-.6-.18-.9-.26-1.5-.41Zm-.27,1.1c.57.14.86.22,1.43.39l.15-.51c-.58-.18-.87-.25-1.45-.4Z"/><path d="M255.72,245.42l0-.08.5-1.39a.67.67,0,0,1,.12-.24.88.88,0,0,1,.59-.33,1.27,1.27,0,0,1,.7.1c.69.27,1,.42,1.71.73l.07,0a1.54,1.54,0,0,1,.76.61.72.72,0,0,1,0,.71l-.76,1.49a.86.86,0,0,1-.13.17,1,1,0,0,1-.2.14,1.23,1.23,0,0,1-.47.11,1,1,0,0,1-.45-.12c-.78-.36-1.18-.53-2-.84a1,1,0,0,1-.25-.15.87.87,0,0,1-.26-.39.82.82,0,0,1,0-.55m1.12.41c.6.24.91.37,1.5.65L259,245c-.63-.29-.94-.42-1.58-.68Z"/><path d="M262.07,249.57a25,25,0,0,0-2.72-1.62l1.57-3c.46.24.69.37,1.15.63l-1.25,2.16c.71.41,1.06.62,1.74,1.08Z"/><path d="M263.16,250.34c-.39-.29-.58-.43-1-.69l1.88-2.79c.44.3.66.45,1.09.77Z"/><path d="M264.33,251.24c-.42-.34-.63-.5-1.07-.83.72-.3,1.09-.44,1.83-.71.09-.79.12-1.19.17-2,.48.36.72.55,1.19.93-.11.59-.16.88-.29,1.46.1.09.16.13.26.23.59-.19.88-.28,1.49-.44.45.42.67.63,1.11,1.07-.8.15-1.19.24-2,.44-.14.79-.22,1.18-.4,1.94-.4-.39-.6-.59-1-1,.13-.6.19-.9.3-1.5l-.26-.22C265.14,250.89,264.86,251,264.33,251.24Z"/><path d="M235,243.89c-.28.12-.62.29-1.19.49l0,0a2.69,2.69,0,0,1-.93-.45c-.48-.35-.54-.54-.74-.49s-.36.39-.72.79a5.82,5.82,0,0,1-.9.88,3,3,0,0,1-1.93-.11.34.34,0,0,0-.24,0,.28.28,0,0,0-.13.15,3.4,3.4,0,0,1-.91,1.77,5.32,5.32,0,0,1-1.19.3c-.55.1-.92.07-1.08.22s0,.3,0,.9a2.55,2.55,0,0,1-.12,1,4.58,4.58,0,0,1-1.56,1.19s-.31.25-.27.36a.09.09,0,0,0,.13.07,4.32,4.32,0,0,1,1.87-.39,4,4,0,0,1,2.5,1.34h0a9.42,9.42,0,0,1,7-4h0s0-.11-.09-.41a3.22,3.22,0,0,1,.06-2.21,3.17,3.17,0,0,1,1.11-1.46c.16-.14.3-.22.19-.32s-.38.09-.9.3m-3.37.58a4.43,4.43,0,0,0,.54-.55,2.76,2.76,0,0,0,.85.39c.28.06.68.1.68.1s-1.11.32-2,.5c-.38.08-1,.16-1,.16a3.91,3.91,0,0,0,1-.6M228.84,246h0c.84.51,1.25.78,2,1.33-.79.41-1.18.63-1.94,1.1C228.88,247.46,228.85,247,228.84,246Zm-3.51,2.7a2.77,2.77,0,0,0,.13-.95,3.89,3.89,0,0,0,.76-.18,4.45,4.45,0,0,0,1-.48s-.48.62-.79.94c-.45.48-1.34,1.27-1.34,1.27s.17-.35.26-.6m.8,2a3.39,3.39,0,0,0-2.06-.22A12.17,12.17,0,0,0,227,248a13.17,13.17,0,0,0,1.16-1.59,33.54,33.54,0,0,0,.3,4,.39.39,0,0,1,0,.06,5.07,5.07,0,0,1-.83,1.46,3.91,3.91,0,0,0-1.48-1.29m4.4-1.85a8.71,8.71,0,0,0-1.42,1l-.1-.89a24.59,24.59,0,0,1,2.28-1.29l.72.52a8.7,8.7,0,0,0-1.48.66m3.77-3a3.45,3.45,0,0,0,.35,2.17,5.33,5.33,0,0,1-1.68-.07l-.05,0a29.85,29.85,0,0,0-3.26-2.32,10.65,10.65,0,0,0,2.16-.28,12.63,12.63,0,0,0,3.23-1.06,4.14,4.14,0,0,0-.75,1.61"/><path d="M222.24,251a.51.51,0,0,0-.11.7.52.52,0,0,0,.7-.09.52.52,0,0,0,.11-.7.51.51,0,0,0-.7.09m.63.43a.26.26,0,1,1-.35-.36.31.31,0,0,1,.42,0,.29.29,0,0,1-.07.41"/><path d="M236.36,242.88a.48.48,0,0,0-.39.55.49.49,0,0,0,.62.27.49.49,0,0,0,.39-.55.48.48,0,0,0-.62-.27m.07.77a.29.29,0,0,1-.37-.16.32.32,0,0,1,.6-.17.29.29,0,0,1-.23.33"/><path d="M224.56,247.74a.66.66,0,0,0,.47-.63c0-.24-.28-.37-.58-.26a.67.67,0,0,0-.47.64c0,.25.29.36.58.25m-.22-.3a.39.39,0,0,1,.29-.38c.17-.06.32,0,.34.16a.42.42,0,0,1-.28.38c-.17.06-.33,0-.35-.16"/><path d="M232.65,243.16a.4.4,0,0,0,.07-.63.64.64,0,0,0-.77.07c-.23.19-.26.47-.06.62a.62.62,0,0,0,.76-.06m-.6-.31a.36.36,0,0,1,.45,0c.12.09.1.26,0,.37a.38.38,0,0,1-.45,0c-.12-.09-.1-.26,0-.38"/><path d="M228.56,244.6a.35.35,0,0,0-.33-.5.72.72,0,0,0-.69.43.36.36,0,0,0,.34.5.72.72,0,0,0,.68-.43m-.7,0a.42.42,0,0,1,.41-.26.21.21,0,0,1,.19.3.41.41,0,0,1-.4.25.2.2,0,0,1-.2-.29"/></g></g></svg>