<?xml version="1.0" encoding="utf-8"?>
<!-- Generator: Adobe Illustrator 24.0.0, SVG Export Plug-In . SVG Version: 6.00 Build 0)  -->
<svg version="1.1" xmlns="http://www.w3.org/2000/svg" xmlns:xlink="http://www.w3.org/1999/xlink" x="0px" y="0px"
	 viewBox="0 0 364.62 364.62" style="enable-background:new 0 0 364.62 364.62;" xml:space="preserve">
<style type="text/css">
	.st0{fill:#FFFFFF;}
	.st1{clip-path:url(#SVGID_2_);}
	.st2{clip-path:url(#SVGID_4_);fill:#FFFFFF;}
	.st3{fill:#DFDFE1;}
	.st4{fill:none;stroke:#000000;stroke-width:0.3442;stroke-miterlimit:10;}
	.st5{fill:#B0B0B0;}
	.st6{clip-path:url(#SVGID_6_);}
	.st7{clip-path:url(#SVGID_8_);}
</style>
<g id="DERBY_ICON">
</g>
<g id="JAM_SKATE_ICON">
	<g id="XMLID_1_">
		<g>
			<path class="st0" d="M332.88,195.56c0.73,3.46,1.46,8.75,0.85,10.02c-2.25,4.74-6.62,7.11-6.62,7.11
				c-22.96,13.18-85.88,24.72-125,13.54c-39.12-11.18-67.79-4.25-92.69-0.24s-48.31,2.11-56.33,1.13
				c-14.95-1.81-15.31-10.69-15.31-10.69c-0.89-3.4-0.89-10.03-0.89-10.03s2.83,4.74,21.2,7.57c13.46,2.07,35.26,3.1,70.39,0.48
				c44.83-3.04,58.19,2.55,75.32,5.47c17.13,2.92,31.06,6.29,45.92,3.63c0,0,49.56-8.25,65.11-15.05
				C330.38,201.7,332.88,195.56,332.88,195.56z"/>
			<path d="M333.54,184.45c2.11,7.21-0.67,11.12-0.67,11.12s-2.49,6.13-18.04,12.93c-15.55,6.8-65.11,15.05-65.11,15.05l7.33-23.62
				c0,0,50.51-3.25,68.32-24.79c3.51-4.63-13.09-11.62-16.35-12.08C329.02,165.5,331.6,177.78,333.54,184.45z"/>
			<path d="M328.5,228.91c0,0,2.92,11.42-12.69,17.92c-15.61,6.5-20.12-5.89-20.12-5.89s16.24-4.13,23.28-8.63
				c7.05-4.5,7.05-9.05,7.05-9.05L328.5,228.91z"/>
			<path d="M327.1,212.69c-0.24,7.59-1.09,10.57-1.09,10.57s0,4.55-7.05,9.05c-7.05,4.5-23.28,8.63-23.28,8.63s-3.85,2.63-8.79,2.55
				c-12.63,0-34.99-11.37-34.99-11.37c-13.61,5.39-43,15.26-93.05,15.26s-63.01-11.66-67.54-13.28c-4.53-1.62-10.69-2.11-15.06-1.98
				c-4.37,0.13-5.99,0.68-11.01,5.22c-5.02,4.54-13.28,7.13-15.87,5.18c-2.59-1.94-11.58-17.98-11.58-17.98s-0.53-5.69-0.61-6.72
				c-0.08-1.03,0.61-1.38,0.61-1.38s0.36,8.88,15.31,10.69c8.02,0.97,31.42,2.88,56.33-1.13s53.57-10.93,92.69,0.24
				C241.22,237.41,304.15,225.87,327.1,212.69z"/>
			<path class="st0" d="M309.03,163.06c3.26,0.46,19.86,7.45,16.35,12.08c-17.82,21.54-68.32,24.79-68.32,24.79l3.6-11.63v-0.04
				c7.9,0.29,13.97-1.08,19.68-3.02c15.85-5.41,21.09-20.42,21.09-20.42c0.26,0.05,0.52,0.11,0.77,0.16l1.62-2.32
				c1.81,0.06,3.5,0.19,5.08,0.38C308.94,163.04,308.98,163.05,309.03,163.06z"/>
			<path d="M133.35,96.92c0,0-0.61-5.35,2.43-8.99c3.04-3.64,8.14-0.3,8.14-0.3c8.08-4.19,13.48-3.89,13.48-3.89
				c5.41-2.55,8.18-3.36,10.37-1.41c46.97,39.68,126.21,65.31,130.35,66.74c4.13,1.43,3.12-0.36,4.21,0c1.09,0.36,3.6,2.34,3.6,2.34
				c0.57,5.67-2.11,11.26-2.11,11.26l-1.62,2.32c-0.26-0.05-0.52-0.11-0.77-0.16c-87.99-18.12-143.42-63.34-143.42-63.34l-1.21-0.97
				c0,0,1.6-1.25,3.38-3.28c2.25-2.58,4.78-6.42,4.64-10.57c0.01-4.25-14.7-0.24-19.32,1.82c0,0,4.56,5.89-2.12,13
				c-6.68,7.11-9.36,12.01-11.01,18.37c-11.2,10.11-22.99,22.4-36.51,22.4c-24.13,0-27.86-34.76-27.86-34.76
				c9.35,12.88,22.29,12.7,32.13,10.87C109.97,116.54,133.35,96.92,133.35,96.92z"/>
			<path class="st0" d="M301.43,164.82c0,0-5.24,15.01-21.09,20.42c-5.71,1.94-11.78,3.31-19.68,3.02
				c-14.05-0.51-33.89-6.25-67.78-23.28c-24.83-12.47-37.76-21.65-44.51-27.87c-7.64-7.06-7.32-10.33-7.32-10.33l0,0
				c-0.1-0.2-4.35-8.34,9.7-19.29c0.39-0.3,0.78-0.6,1.2-0.91c2.92-2.43,6.07-5.1,6.07-5.1S213.44,146.7,301.43,164.82z"/>
			<path d="M88.97,189.71c20.64-16.63,46.32-38.19,59.4-52.6c6.74,6.22,19.68,15.4,44.51,27.87c33.89,17.03,53.73,22.77,67.78,23.28
				v0.04l-3.6,11.63l-7.33,23.62c-14.86,2.66-28.79-0.72-45.92-3.63c-17.13-2.92-30.49-8.5-75.32-5.47
				c-35.13,2.62-56.93,1.59-70.39-0.48C58.1,213.97,71.78,203.55,88.97,189.71z M213.64,196.72c5.35-5.47-0.36-7.9-6.56-10.93
				c-6.2-3.04-36.59-20.31-43.01-19.8c-3.04,0.24-4.25,1.34-7.29,3.89c-3.04,2.55-18.83,16.64-22.35,19.92
				c-3.52,3.28-3.28,6.68,2.43,7.29c17.74,1.21,39.96,5.59,54.3,8.14C205.51,207.77,208.3,202.18,213.64,196.72z"/>
			<path class="st0" d="M207.09,185.78c6.2,3.04,11.9,5.47,6.56,10.93c-5.34,5.47-8.14,11.06-22.47,8.5
				c-14.34-2.55-36.56-6.92-54.3-8.14c-5.71-0.61-5.95-4.01-2.43-7.29c3.52-3.28,19.31-17.37,22.35-19.92
				c3.04-2.55,4.25-3.64,7.29-3.89C170.5,165.47,200.89,182.75,207.09,185.78z"/>
			<path d="M164.81,86.66c0.14,4.14-2.39,7.99-4.64,10.57l-14.68-8.74C150.12,86.42,164.82,82.41,164.81,86.66z"/>
			<path class="st0" d="M145.5,88.48l14.68,8.74c-1.77,2.03-3.38,3.28-3.38,3.28l1.21,0.97c0,0-3.16,2.67-6.07,5.1
				c-0.42,0.31-0.82,0.61-1.2,0.91c-6.07,1.78-12.13,6.73-18.37,12.36c1.65-6.37,4.33-11.27,11.01-18.37
				C150.05,94.37,145.5,88.48,145.5,88.48z"/>
			<path class="st0" d="M141.04,126.79c0,0-0.32,3.27,7.32,10.33c-13.08,14.4-38.76,35.97-59.4,52.6
				c-3.66-6.91-26.6-30.94-36.16-41.1c-9.6-10.2-5.16-17.13-5.16-17.13c7.17-17.49,12.69-21.68,12.69-21.68s8.46,36.5,35.67,36.02
				c17.49,0,35.96-18.63,38.22-21.7c0.44-0.45,1.58,0.36,1.58,0.36L141.04,126.79L141.04,126.79z"/>
			<path d="M141.04,126.78l-5.22-2.3c0,0-1.14-0.81-1.58-0.36c-2.27,3.08-20.73,21.71-38.22,21.7
				c-27.21,0.49-35.67-36.02-35.67-36.02c-0.55-4.31,5.65-5.28,7.65-2.31c0,0,3.72,34.76,27.86,34.76
				c13.52,0,25.31-12.29,36.51-22.4c6.24-5.63,12.3-10.58,18.37-12.36C136.69,118.44,140.94,126.59,141.04,126.78z"/>
			<path d="M52.81,148.61c9.56,10.16,32.49,34.19,36.16,41.1c-17.18,13.84-30.87,24.26-30.87,24.26c-18.37-2.82-21.2-7.57-21.2-7.57
				s-2.39-2.36-2.59-6.84c-0.81-17.68,4.05-33.01,5.83-39.81c1.78-6.8,3.32-18,4.29-23.1c0.97-5.1,3.22-5.16,3.22-5.16
				S43.22,138.41,52.81,148.61z"/>
		</g>
		<g>
			<path class="st4" d="M308.9,163.04c-1.58-0.19-3.27-0.32-5.08-0.38c0,0,2.67-5.59,2.11-11.26c0,0-2.51-1.97-3.6-2.34
				c-1.09-0.36-0.08,1.43-4.21,0c-4.13-1.43-83.37-27.06-130.35-66.74c-2.19-1.94-4.96-1.14-10.37,1.41c0,0-5.4-0.3-13.48,3.89
				c0,0-5.1-3.34-8.14,0.3c-3.04,3.64-2.43,8.99-2.43,8.99s-23.38,19.62-33.22,21.44c-9.84,1.82-22.78,2.01-32.13-10.87
				c-2.01-2.97-8.2-2-7.65,2.31c0,0-5.53,4.19-12.69,21.68c0,0-2.25,0.06-3.22,5.16c-0.97,5.1-2.51,16.3-4.29,23.1
				c-1.78,6.8-6.64,22.13-5.83,39.81c0.2,4.48,2.59,6.84,2.59,6.84s0,6.63,0.89,10.03c0,0-0.69,0.34-0.61,1.38
				c0.08,1.03,0.61,6.72,0.61,6.72s8.99,16.04,11.58,17.98c2.59,1.94,10.85-0.65,15.87-5.18c5.02-4.54,6.64-5.09,11.01-5.22
				c4.37-0.13,10.53,0.36,15.06,1.98c4.54,1.62,17.49,13.28,67.54,13.28s79.44-9.87,93.05-15.26c0,0,22.35,11.37,34.99,11.37
				c4.94,0.08,8.79-2.55,8.79-2.55s4.52,12.39,20.12,5.89c15.61-6.5,12.69-17.92,12.69-17.92l-2.49-5.65c0,0,0.85-2.98,1.09-10.57
				c0,0,4.37-2.37,6.62-7.11c0.61-1.27-0.12-6.56-0.85-10.02c0,0,2.77-3.91,0.67-11.12c-1.95-6.67-4.52-18.95-24.52-21.39"/>
			<path class="st4" d="M141.04,126.79L141.04,126.79c-0.11-0.2-4.35-8.35,9.69-19.29c0.39-0.3,0.78-0.6,1.2-0.91
				c2.92-2.43,6.07-5.1,6.07-5.1l-1.21-0.97c0,0,1.6-1.25,3.38-3.28c2.25-2.58,4.78-6.42,4.64-10.57c0.01-4.25-14.7-0.24-19.32,1.82
				l14.68,8.74"/>
			<path class="st4" d="M60.34,109.8c0,0,8.46,36.5,35.67,36.02c17.49,0,35.96-18.63,38.22-21.7c0.44-0.45,1.58,0.36,1.58,0.36
				l5.22,2.3"/>
			<path class="st4" d="M158.01,101.48c0,0,55.43,45.23,143.42,63.34c0.26,0.05,0.52,0.11,0.77,0.16l1.62-2.32"/>
			<path class="st4" d="M301.43,164.82c0,0-5.24,15.01-21.09,20.42c-5.71,1.94-11.78,3.31-19.68,3.02
				c-14.05-0.51-33.89-6.25-67.78-23.28c-24.83-12.47-37.76-21.65-44.51-27.87c-7.64-7.06-7.32-10.33-7.32-10.33"/>
			<path class="st4" d="M260.66,188.3l-3.6,11.63l-7.33,23.62c0,0,49.56-8.25,65.11-15.05c15.55-6.8,18.04-12.93,18.04-12.93"/>
			<path class="st4" d="M36.9,206.41c0,0,2.83,4.74,21.2,7.57c13.46,2.07,35.26,3.1,70.39,0.48c44.83-3.04,58.19,2.55,75.32,5.47
				c17.13,2.92,31.06,6.29,45.92,3.63"/>
			<path class="st4" d="M37.79,216.43c0,0,0.36,8.88,15.31,10.69c8.02,0.97,31.42,2.88,56.33-1.13s53.57-10.93,92.69,0.24
				c39.11,11.18,102.04-0.36,125-13.54"/>
			<path class="st4" d="M68,107.49c0,0,3.72,34.76,27.86,34.76c13.52,0,25.31-12.29,36.51-22.4c6.24-5.63,12.3-10.58,18.37-12.36"/>
			<path class="st4" d="M133.35,96.92c0,0,0.61,2.98,4.16,5.95"/>
			<path class="st4" d="M145.5,88.48c0,0,4.56,5.89-2.12,13c-6.68,7.11-9.36,12.01-11.01,18.37"/>
			<path class="st4" d="M47.65,131.48c0,0-4.43,6.92,5.16,17.13c9.56,10.16,32.49,34.19,36.16,41.1c0.02,0.03,0.03,0.06,0.04,0.08"
				/>
			<path class="st4" d="M58.1,213.97c0,0,13.68-10.42,30.87-24.26c20.64-16.63,46.32-38.19,59.4-52.6"/>
			<path class="st4" d="M257.05,199.93c0,0,50.51-3.25,68.32-24.79c3.51-4.63-13.09-11.62-16.35-12.08
				c-0.04-0.01-0.09-0.01-0.13-0.02"/>
			<path class="st4" d="M295.68,240.93c0,0,16.24-4.13,23.28-8.63c7.05-4.5,7.05-9.05,7.05-9.05"/>
			<path class="st4" d="M164.08,165.98c6.42-0.52,36.81,16.76,43.01,19.8c6.2,3.04,11.9,5.47,6.56,10.93
				c-5.34,5.47-8.14,11.06-22.47,8.5c-14.34-2.55-36.56-6.92-54.3-8.14c-5.71-0.61-5.95-4.01-2.43-7.29
				c3.52-3.28,19.31-17.37,22.35-19.92C159.83,167.32,161.05,166.23,164.08,165.98z"/>
		</g>
	</g>
	<circle class="st5" cx="80.68" cy="263.77" r="24.77"/>
	<g>
		<path d="M80.68,250.2c-7.49,0-13.57,6.07-13.57,13.57c0,7.49,6.07,13.57,13.57,13.57c7.49,0,13.57-6.07,13.57-13.57
			C94.25,256.28,88.17,250.2,80.68,250.2z M80.68,274.87c-6.13,0-11.1-4.97-11.1-11.1c0-6.13,4.97-11.1,11.1-11.1
			s11.1,4.97,11.1,11.1C91.78,269.9,86.81,274.87,80.68,274.87z"/>
	</g>
	<g>
		<g>
			<path class="st3" d="M80.68,299.13c-19.5,0-35.36-15.86-35.36-35.36s15.86-35.36,35.36-35.36c19.5,0,35.36,15.86,35.36,35.36
				S100.18,299.13,80.68,299.13z M80.68,238.92c-13.7,0-24.85,11.15-24.85,24.85c0,13.7,11.15,24.85,24.85,24.85
				c13.7,0,24.85-11.15,24.85-24.85C105.53,250.06,94.38,238.92,80.68,238.92z"/>
			<path d="M80.68,228.5c19.45,0,35.27,15.82,35.27,35.27c0,19.45-15.82,35.27-35.27,35.27s-35.27-15.82-35.27-35.27
				C45.42,244.32,61.24,228.5,80.68,228.5 M80.68,288.71c13.75,0,24.95-11.19,24.95-24.95s-11.19-24.95-24.95-24.95
				s-24.95,11.19-24.95,24.95S66.93,288.71,80.68,288.71 M80.68,228.32c-19.58,0-35.45,15.87-35.45,35.45
				c0,19.58,15.87,35.45,35.45,35.45s35.45-15.87,35.45-35.45C116.13,244.19,100.26,228.32,80.68,228.32L80.68,228.32z
				 M80.68,288.53c-13.67,0-24.76-11.09-24.76-24.76c0-13.67,11.09-24.76,24.76-24.76s24.76,11.09,24.76,24.76
				C105.44,277.44,94.36,288.53,80.68,288.53L80.68,288.53z"/>
		</g>
	</g>
	<circle class="st5" cx="251.21" cy="263.77" r="24.77"/>
	<g>
		<path d="M251.22,250.2c-7.49,0-13.57,6.07-13.57,13.57c0,7.49,6.07,13.57,13.57,13.57c7.49,0,13.57-6.07,13.57-13.57
			C264.79,256.28,258.71,250.2,251.22,250.2z M251.22,274.87c-6.13,0-11.1-4.97-11.1-11.1c0-6.13,4.97-11.1,11.1-11.1
			c6.13,0,11.1,4.97,11.1,11.1C262.32,269.9,257.35,274.87,251.22,274.87z"/>
	</g>
	<g>
		<g>
			<path class="st3" d="M251.22,299.13c-19.5,0-35.36-15.86-35.36-35.36s15.86-35.36,35.36-35.36s35.36,15.86,35.36,35.36
				S270.71,299.13,251.22,299.13z M251.22,238.92c-13.7,0-24.85,11.15-24.85,24.85c0,13.7,11.15,24.85,24.85,24.85
				s24.85-11.15,24.85-24.85C276.07,250.06,264.92,238.92,251.22,238.92z"/>
			<path d="M251.22,228.5c19.45,0,35.27,15.82,35.27,35.27c0,19.45-15.82,35.27-35.27,35.27c-19.45,0-35.27-15.82-35.27-35.27
				C215.95,244.32,231.77,228.5,251.22,228.5 M251.22,288.71c13.75,0,24.95-11.19,24.95-24.95s-11.19-24.95-24.95-24.95
				s-24.95,11.19-24.95,24.95S237.46,288.71,251.22,288.71 M251.22,228.32c-19.58,0-35.45,15.87-35.45,35.45
				c0,19.58,15.87,35.45,35.45,35.45c19.58,0,35.45-15.87,35.45-35.45C286.67,244.19,270.8,228.32,251.22,228.32L251.22,228.32z
				 M251.22,288.53c-13.67,0-24.76-11.09-24.76-24.76c0-13.67,11.09-24.76,24.76-24.76c13.67,0,24.76,11.09,24.76,24.76
				C275.98,277.44,264.89,288.53,251.22,288.53L251.22,288.53z"/>
		</g>
	</g>
	<g id="Horizontal_Logo_All_Black_8_">
		<g>
			<defs>
				
					<rect id="SVGID_5_" x="194.92" y="113.02" transform="matrix(0.462 -0.8869 0.8869 0.462 -29.9761 262.872)" width="13.53" height="86.24"/>
			</defs>
			<clipPath id="SVGID_2_">
				<use xlink:href="#SVGID_5_"  style="overflow:visible;"/>
			</clipPath>
			<g class="st1">
				<defs>
					
						<rect id="SVGID_7_" x="194.92" y="113.02" transform="matrix(0.462 -0.8869 0.8869 0.462 -29.9761 262.872)" width="13.53" height="86.24"/>
				</defs>
				<clipPath id="SVGID_4_">
					<use xlink:href="#SVGID_7_"  style="overflow:visible;"/>
				</clipPath>
				<path style="clip-path:url(#SVGID_4_);" d="M192.25,155.23l-1.89-0.99l2.47-4.73l0.13-0.2c0.26-0.35,0.51-0.58,0.76-0.69
					c0.25-0.11,0.56-0.14,0.93-0.08c0.08,0.01,0.18,0.04,0.29,0.08c0.11,0.04,0.26,0.11,0.44,0.21l2.74,1.43
					c0.24,0.12,0.42,0.26,0.54,0.41c0.12,0.15,0.21,0.36,0.28,0.63c0.11,0.41,0.05,0.82-0.17,1.25l-2.48,4.77l-1.89-0.99l1.27-2.44
					l-2.12-1.11L192.25,155.23z M194.22,151.44l2.12,1.11l0.46-0.89l-2.12-1.11L194.22,151.44z"/>
				<polygon style="clip-path:url(#SVGID_4_);" points="198.73,158.61 196.84,157.62 200.13,151.31 202.54,152.57 202.95,156.77 
					204.58,153.63 206.48,154.62 203.19,160.93 201.29,159.94 200.86,154.53 				"/>
				<path style="clip-path:url(#SVGID_4_);" d="M205.66,162.22l-1.89-0.99l2.47-4.73l0.13-0.2c0.26-0.35,0.51-0.58,0.76-0.69
					c0.25-0.11,0.56-0.14,0.93-0.08c0.08,0.01,0.18,0.04,0.29,0.08c0.11,0.04,0.26,0.11,0.44,0.21l2.74,1.43
					c0.24,0.12,0.42,0.26,0.54,0.41c0.12,0.15,0.21,0.36,0.28,0.63c0.11,0.41,0.05,0.82-0.17,1.25l-2.48,4.77l-1.89-0.99l1.27-2.44
					l-2.12-1.11L205.66,162.22z M207.63,158.43l2.12,1.11l0.46-0.89l-2.12-1.11L207.63,158.43z"/>
				<path style="clip-path:url(#SVGID_4_);" d="M214.4,166.79l-4.16-2.16l3.3-6.33l4.73,2.46c0.39,0.2,0.65,0.49,0.81,0.87
					c0.17,0.45,0.18,0.82,0.03,1.12l-0.45,0.86c-0.03,0.05-0.07,0.11-0.13,0.16c-0.06,0.05-0.16,0.13-0.28,0.21
					c-0.07,0.05-0.15,0.09-0.25,0.13c-0.1,0.04-0.21,0.08-0.33,0.11l-0.17,0.05l-0.11,0.01c0.08,0.11,0.15,0.24,0.2,0.39
					c0.05,0.15,0.08,0.31,0.09,0.47c0,0.14,0,0.24-0.01,0.33c-0.01,0.08-0.03,0.15-0.05,0.2l-0.44,0.85
					c-0.1,0.2-0.26,0.36-0.46,0.48c-0.2,0.12-0.47,0.2-0.79,0.23c-0.24,0.03-0.51-0.01-0.82-0.12c-0.09-0.02-0.17-0.05-0.26-0.09
					c-0.09-0.04-0.17-0.08-0.25-0.12L214.4,166.79z M214.11,161.84l2.35,1.22l0.47-0.91l-2.35-1.22L214.11,161.84z M212.99,163.98
					l2.35,1.22l0.53-1.01l-2.35-1.22L212.99,163.98z"/>
				<path style="clip-path:url(#SVGID_4_);" d="M217.91,166.54l0.07-0.16l1.44-2.77c0.1-0.19,0.2-0.34,0.32-0.47
					c0.33-0.36,0.71-0.57,1.14-0.63c0.38-0.06,0.77,0.02,1.17,0.23l2.71,1.41l0.11,0.05c0.63,0.33,1.02,0.71,1.17,1.13
					c0.15,0.43,0.09,0.91-0.19,1.44l-1.64,3.14c-0.06,0.11-0.14,0.23-0.26,0.36c-0.11,0.13-0.25,0.23-0.4,0.31
					c-0.32,0.17-0.62,0.27-0.88,0.27c-0.27,0.01-0.55-0.06-0.83-0.21l-3.46-1.8c-0.13-0.07-0.27-0.18-0.4-0.34
					c-0.22-0.27-0.33-0.55-0.35-0.84C217.61,167.32,217.7,166.95,217.91,166.54 M219.81,167.5l2.57,1.34l1.58-3.03l-2.57-1.34
					L219.81,167.5z"/>
				<polygon style="clip-path:url(#SVGID_4_);" points="229.05,174.4 223.99,171.77 227.28,165.46 229.18,166.44 226.74,171.12 
					229.9,172.76 				"/>
				
					<rect x="228.28" y="170.77" transform="matrix(0.462 -0.8869 0.8869 0.462 -27.6747 298.062)" style="clip-path:url(#SVGID_4_);" width="7.12" height="2.14"/>
				<polygon style="clip-path:url(#SVGID_4_);" points="233.46,176.7 231.34,175.6 234.53,173.24 234.63,169.28 236.74,170.38 
					236.48,173.38 236.98,173.64 239.43,171.78 241.55,172.89 238.35,175.24 238.29,179.21 236.14,178.09 236.26,175.02 
					235.76,174.76 				"/>
				<path style="clip-path:url(#SVGID_4_);" d="M186.36,146.88c-0.48-0.2-1.12-0.39-2.01-0.9l0-0.05c0,0-0.35-0.79-0.31-1.97
					c0.04-1.19,0.25-1.55-0.01-1.76c-0.26-0.21-0.91,0.05-1.85,0.09c-0.75,0.04-1.75-0.09-2.14-0.14c-1.3-1.77-1.42-3.12-1.42-3.12
					s-0.03-0.25-0.22-0.34c-0.19-0.09-0.34-0.03-0.34-0.03s-1.34,0.66-3.43,0.68c-0.29-0.32-0.9-1.03-1.27-1.63
					c-0.49-0.8-0.64-1.48-0.97-1.58c-0.32-0.1-0.51,0.28-1.46,0.98c-0.93,0.68-1.76,0.85-1.8,0.86c-1.68-0.81-2.73-1.68-2.73-1.68
					s-0.55-0.33-0.72-0.18c-0.17,0.16-0.07,0.3-0.07,0.3s0.79,0.82,1.52,3.05c0.73,2.23-0.82,5.8-0.82,5.8s0.01-0.01,0.02-0.03
					c0.1,0,3.25,0.16,7.44,2.45c4.22,2.31,6.09,4.68,6.12,4.72c0,0.01-0.01,0.02-0.01,0.02s0.15-0.19,0.53-0.73
					c0.38-0.53,1.36-2.21,3.36-3.13c2-0.92,2.98-0.72,3.36-0.73c0.38,0,0.66,0.06,0.67-0.25
					C187.82,147.27,187.25,147.25,186.36,146.88 M182.01,142.99c1.29,0.06,1.33,0,1.33,0s-0.04,0.96,0.28,1.77
					c0.19,0.49,0.42,0.88,0.56,1.11c-0.74-0.44-1.64-1.1-2.76-2.16c-0.48-0.46-0.88-0.9-1.21-1.33
					C180.58,142.62,181.2,142.95,182.01,142.99 M177.23,140.68L177.23,140.68l-0.35,4.96l-3.48-1.81L177.23,140.68z M170.5,137.91
					c0.85-0.2,1.62-0.77,1.62-0.77s-0.03,0.07,0.76,1.1c0.45,0.59,1.01,0.92,1.41,1.1c-0.63-0.02-1.32-0.09-2.05-0.26
					c-1.07-0.25-2.05-0.61-2.88-1C169.64,138.06,170.04,138.02,170.5,137.91 M167.64,141.32c0.21-2.31-0.7-3.92-0.7-3.92
					s2.34,2.1,5.73,2.56c1.4,0.19,2.54,0.17,3.39,0.08l-6.45,5.13c-0.05,0.04-0.07,0.07-0.1,0.1c-1.96-0.35-3.08-0.05-3.16-0.02
					C166.49,145,167.45,143.45,167.64,141.32 M174.13,146.92c-1.08-0.56-2.05-0.95-2.93-1.23l1.42-1.17l4.16,2.17l-0.13,1.83
					C175.96,147.98,175.13,147.44,174.13,146.92 M182.76,148.76c-1.82,1.11-2.77,3.44-2.85,3.65c-0.01-0.05-0.38-1.2-1.86-2.69
					c0.01-0.05,0.02-0.08,0.03-0.14l0.5-8.16c0.44,0.79,1.17,1.8,2.39,2.92c2.89,2.66,4.96,3.05,4.96,3.05
					S184.67,147.59,182.76,148.76"/>
				<path style="clip-path:url(#SVGID_4_);" d="M165.34,134.53c-0.44-0.23-0.98-0.06-1.21,0.38c-0.23,0.44-0.06,0.98,0.38,1.21
					c0.44,0.23,0.98,0.06,1.21-0.38C165.95,135.3,165.78,134.76,165.34,134.53 M164.81,136.06c-0.26-0.14-0.36-0.46-0.23-0.72
					c0.14-0.26,0.46-0.37,0.72-0.23c0.26,0.14,0.36,0.46,0.23,0.72C165.4,136.1,165.07,136.2,164.81,136.06"/>
				<path style="clip-path:url(#SVGID_4_);" d="M189.29,147.01c-0.44-0.23-0.98-0.06-1.21,0.38c-0.23,0.44-0.06,0.98,0.38,1.21
					c0.44,0.23,0.98,0.06,1.21-0.38C189.9,147.78,189.73,147.24,189.29,147.01 M188.34,148.31c-0.26-0.14-0.36-0.46-0.23-0.72
					s0.46-0.37,0.72-0.23c0.26,0.14,0.36,0.46,0.23,0.72S188.6,148.45,188.34,148.31"/>
				<path style="clip-path:url(#SVGID_4_);" d="M171.64,135.6c0.31,0.39,0.88,0.44,1.27,0.13c0.38-0.31,0.44-0.88,0.13-1.27
					c-0.32-0.38-0.88-0.44-1.27-0.13C171.38,134.65,171.32,135.21,171.64,135.6 M172.02,134.91c0.23-0.19,0.57-0.15,0.76,0.08
					c0.19,0.23,0.15,0.57-0.08,0.76c-0.23,0.19-0.57,0.15-0.76-0.08C171.76,135.43,171.79,135.1,172.02,134.91"/>
				<path style="clip-path:url(#SVGID_4_);" d="M184.89,142.52c0.5,0.04,0.93-0.33,0.97-0.82c0.04-0.5-0.33-0.93-0.82-0.97
					c-0.5-0.04-0.93,0.33-0.97,0.82C184.03,142.04,184.39,142.48,184.89,142.52 M184.75,141.23c0.3,0.03,0.51,0.29,0.49,0.58
					c-0.02,0.3-0.28,0.51-0.58,0.49c-0.3-0.02-0.51-0.28-0.49-0.58C184.2,141.43,184.46,141.21,184.75,141.23"/>
				<path style="clip-path:url(#SVGID_4_);" d="M179.18,138.48c0.47-0.18,0.7-0.7,0.52-1.16c-0.18-0.46-0.7-0.7-1.16-0.52
					c-0.47,0.18-0.7,0.7-0.52,1.16C178.2,138.43,178.71,138.66,179.18,138.48 M178.6,137.43c0.28-0.1,0.59,0.03,0.69,0.31
					c0.11,0.28-0.03,0.59-0.31,0.69c-0.28,0.1-0.59-0.04-0.69-0.31C178.19,137.84,178.32,137.53,178.6,137.43"/>
			</g>
		</g>
	</g>
</g>
</svg>
