<svg xmlns="http://www.w3.org/2000/svg" xmlns:xlink="http://www.w3.org/1999/xlink" viewBox="0 0 359.12 333.74"><defs><style>.cls-1,.cls-3,.cls-4,.cls-5,.cls-6,.cls-7{fill:none;}.cls-2{fill:#fff;}.cls-3,.cls-5,.cls-7{stroke:#000;}.cls-3,.cls-4,.cls-5,.cls-6,.cls-7{stroke-miterlimit:10;}.cls-3{stroke-width:1.26px;}.cls-4,.cls-6{stroke:#fff;}.cls-4,.cls-5{stroke-width:0.42px;}.cls-6{stroke-width:0.84px;}.cls-7{stroke-width:0.52px;}.cls-8{fill:#b0b0b0;}.cls-9{fill:#dfdfe1;}.cls-10{clip-path:url(#clip-path);}</style><clipPath id="clip-path"><rect class="cls-1" x="23.62" y="113.24" width="58.64" height="27.54"/></clipPath></defs><title>AnabolixIcon</title><g id="OUTDOOR_SKATE_ICON" data-name="OUTDOOR SKATE ICON"><path class="cls-2" d="M182.76,113.65l-8.21,8.14-.3.29-.09.09h0a4.28,4.28,0,1,1-5.45-6.61l7.27-7.12C178,110,180.22,111.79,182.76,113.65Z"/><path d="M320.45,205.54s.32,8.17-3.65,12.54a8.43,8.43,0,0,1-1.49,1.3c-3.35,2.27-14.86,6.76-23.42,9.94-5.56,2.07-9.88,3.59-9.88,3.59s-43.54-3.5-81,2.11S96,237.47,82.61,230.38,52.38,223.19,35.92,235c0,0-11.55-17.37-12.3-19.3a7.29,7.29,0,0,1,0-4.23c64,6.74,66.11,3.34,66.11,3.34l67.43-3.34h0c20.38,3.21,40.43,6.83,61.81,8.45C262.84,223.25,320.45,205.54,320.45,205.54Z"/><path class="cls-2" d="M287.7,149.68l-1,9.49a2,2,0,0,1-.05.42v.13h0a4.28,4.28,0,1,1-8.38-1.76l1-9C283.41,149.41,286.39,149.6,287.7,149.68Z"/><path d="M132.51,77.76c-6.14-.63-14.2,2.34-27.06,9.31C59.8,113.75,22.81,99.59,22.81,99.59c.59-.81-.47-2-.47-2,0-2.47,5.43-4,11.06-3.46s20.76,1.59,67.89-20.15c0,0,6.91-13.54,9-16a2.2,2.2,0,0,1,4,.79s6.62,0,16,7.31,12,9,12,9,4.94-4.34,8.3-5.33c0,0-.85,5.37-7.76,13.88C139.75,80.15,136.55,78.18,132.51,77.76Z"/><path class="cls-2" d="M241.42,142.26l-2.49,8.32c0,.13-.08.27-.13.4l0,.12h0a4.28,4.28,0,1,1-7.9-3.3l2.41-7.89C236,140.76,238.71,141.55,241.42,142.26Z"/><path class="cls-2" d="M202.38,126.34l-6.81,8.82-.25.33-.09.1h0a4.36,4.36,0,0,1-2.29,1.29,4.29,4.29,0,0,1-4-7.13L195,122C197.37,123.43,199.82,124.89,202.38,126.34Z"/><path d="M105.45,87.07c12.86-7,20.92-9.94,27.06-9.31-1.68,1.33-23.91,18.87-36.26,28.18-12.85,9.69-21.34,7.31-43.79,4.15s-29.65,6.13-29.65,6.13l-1.06-4.15S20.14,103,22.81,99.59C22.81,99.59,59.8,113.75,105.45,87.07Z"/><path class="cls-2" d="M288,147.12l-.26,2.56c-1.31-.08-4.29-.27-8.46-.69l.25-2.28Z"/><path class="cls-2" d="M242.4,139l-1,3.29c-2.71-.71-5.44-1.5-8.16-2.35l.9-2.94Z"/><path d="M142.93,83.56a82,82,0,0,1-8.74,9.14c-5.27,4.79-11.19,10-16.7,15.14l0,0a0,0,0,0,0,0,0c-.75.61-13.07,10.6-30.49,25.29C71.07,146.57,61.2,148,59.13,148.1c-41.91-4.8-43.77-19.38-43.77-19.38l-.7-.11c.51-3.46,1.17-7,2-10.63.72-4.53,2.89-5.91,5.07-5.91l1.06,4.15s7.2-9.29,29.65-6.13,30.94,5.54,43.79-4.15c12.35-9.31,34.58-26.85,36.26-28.18C136.55,78.18,139.75,80.15,142.93,83.56Z"/><path class="cls-2" d="M150.69,69.68l21.05,20.95s-.89,4.64-3.07,6.22l-2.25,3.25-2.24,3.25s-31.57,39-46.79,43.51S97.23,138.15,98,130.93c.51-4.68,9.25-13.63,19.42-23.06a0,0,0,0,1,0,0l0,0c5.51-5.11,11.43-10.35,16.7-15.14a82,82,0,0,0,8.74-9.14C149.84,75.05,150.69,69.68,150.69,69.68Z"/><path d="M87,133.16c17.42-14.69,29.74-24.68,30.49-25.29C107.28,117.3,98.54,126.25,98,130.93c-.8,7.22,4.15,20.49,19.36,15.93s46.79-43.51,46.79-43.51l2.24-3.25s3.4,3.39,9.55,8.34l-7.27,7.12a4.28,4.28,0,1,0,5.45,6.61h0l.09-.09.3-.29,8.21-8.14c3.58,2.63,7.69,5.47,12.28,8.33L189,129.75a4.29,4.29,0,0,0,4,7.13,4.36,4.36,0,0,0,2.29-1.29h0l.09-.1.25-.33,6.81-8.82c3.42,1.94,7,3.84,10.84,5.66l-4.1,7.89a4.28,4.28,0,0,0,5.13,6.34,4.18,4.18,0,0,0,2-1.66h0l.06-.12a2.64,2.64,0,0,0,.2-.37l4.42-8.61c4,1.66,8.16,3.13,12.29,4.43l-2.41,7.89a4.28,4.28,0,1,0,7.9,3.3h0l0-.12c0-.13.09-.27.13-.4l2.49-8.32c4.69,1.25,9.32,2.29,13.72,3.16l-1.55,7.9a4.28,4.28,0,0,0,6.72,4.64,4.21,4.21,0,0,0,1.47-2.17h0l0-.12a3,3,0,0,0,.09-.41l1.59-8.34c6.12,1,11.53,1.65,15.74,2.07l-1,9a4.28,4.28,0,1,0,8.38,1.76h0v-.13a2,2,0,0,0,.05-.42l1-9.49.73,0a94.94,94.94,0,0,1,25.7,6.13c13.81,5.75,26.44,16.46,19.75,32.71a1.76,1.76,0,0,1,0,.21c-47,15.67-90.87,23.08-140.15,17.18-19.55-2.34-37.26-4.09-53.92-5.3-1.22-1.84-6.37-10-12.48-24.64-7-16.81-15.71-26.38-40-26.38a258.16,258.16,0,0,1-28.23-1.52C61.2,148,71.07,146.57,87,133.16Z"/><path d="M334.28,234.25c1.33,2.29,8.3,11.71,7.12,14.1-7.41,13.65-18.53,17-26.68,19.25s-15,1.18-16.53-2.67-5.41-15.27-5.41-15.27c0-5.48,10.82-10.52,10.82-10.52l-2.5-4.54a80.68,80.68,0,0,0,14.06-6.28l.36-.22,2,4.52a54.32,54.32,0,0,1,9-2A7.7,7.7,0,0,1,334.28,234.25Z"/><path class="cls-2" d="M59.13,148.1a258.16,258.16,0,0,0,28.23,1.52c24.3,0,33,9.57,40,26.38,6.11,14.67,11.26,22.8,12.48,24.64-25.51-1.86-48.57-2.47-72.06-2.12-38.84.58-47.43-8.44-47.43-8.44s-10.85-26.35-5.7-61.47l.7.11S17.22,143.3,59.13,148.1Z"/><path class="cls-2" d="M264.17,143.36l-.67,3.56c-2.66-.44-5.47-.93-8.36-1.5l.63-3.21Z"/><path class="cls-2" d="M263.5,146.92l-1.59,8.34a3,3,0,0,1-.09.41l0,.12h0a4.21,4.21,0,0,1-1.47,2.17,4.28,4.28,0,0,1-6.72-4.64l1.55-7.9C258,146,260.84,146.48,263.5,146.92Z"/><path class="cls-2" d="M203.28,125.18l-.9,1.16c-2.56-1.45-5-2.91-7.34-4.36l1.2-1.53Z"/><path class="cls-2" d="M221,135.48l-4.42,8.61a2.64,2.64,0,0,1-.2.37l-.06.12h0a4.18,4.18,0,0,1-2,1.66,4.28,4.28,0,0,1-5.13-6.34l4.1-7.89c1.56.75,3.14,1.48,4.76,2.2C219,134.64,220,135.07,221,135.48Z"/><path class="cls-2" d="M222.08,133.31,221,135.48c-1-.41-2-.84-3-1.28-1.62-.72-3.2-1.45-4.76-2.2l1.12-2.15Z"/><path d="M139.85,200.64c16.66,1.21,34.37,3,53.92,5.3,49.28,5.9,93.16-1.51,140.15-17.18.17,1.3.86,8.09-3.59,12.63-2,2.27-9.88,4.15-9.88,4.15S262.84,223.25,219,219.93c-21.38-1.62-41.43-5.24-61.81-8.45-21.45-3.37-43.27-6.29-67.43-5.94v9.29s-2.08,3.4-66.11-3.34c0,0-6.37-13-4.15-20.22l.89-1.19s8.59,9,47.43,8.44C91.28,198.17,114.34,198.78,139.85,200.64Z"/><path class="cls-2" d="M183.5,112.91l-.74.74c-2.54-1.86-4.81-3.62-6.79-5.21l1.16-1.14Z"/><path d="M315.16,228.32a80.68,80.68,0,0,1-14.06,6.28,10.78,10.78,0,0,1-4.32.68c-3.26-.59-4.89-6-4.89-6,8.56-3.18,20.07-7.67,23.42-9.94a8.43,8.43,0,0,0,1.49-1.3,24.8,24.8,0,0,1,3.65,5.64s-1.21,2.1-4.93,4.38Z"/><path class="cls-3" d="M176,108.44c-6.15-5-9.55-8.34-9.55-8.34"/><path class="cls-3" d="M195,122c-4.59-2.86-8.7-5.7-12.28-8.33"/><path class="cls-3" d="M213.22,132c-3.8-1.82-7.42-3.72-10.84-5.66"/><path class="cls-3" d="M233.26,139.91c-4.13-1.3-8.26-2.77-12.29-4.43"/><path class="cls-3" d="M255.14,145.42c-4.4-.87-9-1.91-13.72-3.16"/><path class="cls-3" d="M279.24,149c-4.21-.42-9.62-1.08-15.74-2.07"/><path class="cls-3" d="M168.67,96.85c2.18-1.58,3.07-6.22,3.07-6.22L150.69,69.68c-3.36,1-8.3,5.33-8.3,5.33s-2.67-1.68-12-9-16-7.31-16-7.31a2.2,2.2,0,0,0-4-.79c-2.08,2.47-9,16-9,16C54.16,95.67,39,94.58,33.4,94.08s-11.06,1-11.06,3.46c0,0,1.06,1.24.47,2-2.67,3.41-1.06,12.48-1.06,12.48-2.18,0-4.35,1.38-5.07,5.91-.85,3.62-1.51,7.17-2,10.63-5.15,35.12,5.7,61.47,5.7,61.47l-.89,1.19c-2.22,7.26,4.15,20.22,4.15,20.22a7.29,7.29,0,0,0,0,4.23c.75,1.93,12.3,19.3,12.3,19.3,16.46-11.83,33.35-11.74,46.69-4.64S163.54,240.62,201,235s81-2.11,81-2.11,4.32-1.52,9.88-3.59c8.56-3.18,20.07-7.67,23.42-9.94a8.43,8.43,0,0,0,1.49-1.3c4-4.37,3.65-12.54,3.65-12.54s7.9-1.88,9.88-4.15c4.45-4.54,3.76-11.33,3.59-12.63a1.76,1.76,0,0,0,0-.21c6.69-16.25-5.94-27-19.75-32.71a94.94,94.94,0,0,0-25.7-6.13l-.73,0"/><path class="cls-4" d="M22.81,99.59s37,14.16,82.64-12.52c12.86-7,20.92-9.94,27.06-9.31,4,.42,7.24,2.39,10.42,5.8"/><path class="cls-4" d="M117.45,107.87C107.28,117.3,98.54,126.25,98,130.93c-.8,7.22,4.15,20.49,19.36,15.93s46.79-43.51,46.79-43.51"/><path class="cls-4" d="M150.69,69.68s-.85,5.37-7.76,13.88a82,82,0,0,1-8.74,9.14c-5.27,4.79-11.19,10-16.7,15.14l0,0"/><polyline class="cls-5" points="164.18 103.35 166.42 100.1 168.68 96.85"/><path class="cls-4" d="M15.36,128.72s1.86,14.58,43.77,19.38a258.16,258.16,0,0,0,28.23,1.52c24.3,0,33,9.57,40,26.38,6.11,14.67,11.26,22.8,12.48,24.64l.27.4"/><path class="cls-6" d="M20.36,190.08s8.59,9,47.43,8.44c23.49-.35,46.55.26,72.06,2.12,16.66,1.21,34.37,3,53.92,5.3,49.28,5.9,93.16-1.51,140.15-17.18l.66-.21"/><path class="cls-5" d="M320.45,205.54S262.84,223.25,219,219.93c-21.38-1.62-41.43-5.24-61.81-8.45-21.45-3.37-43.27-6.29-67.43-5.94v9.29s-2.08,3.4-66.11-3.34"/><line class="cls-5" x1="89.73" y1="214.83" x2="157.16" y2="211.49"/><path class="cls-4" d="M21.75,112.07l1.06,4.15s7.2-9.29,29.65-6.13,30.94,5.54,43.79-4.15c12.35-9.31,34.58-26.85,36.26-28.18l.1-.08"/><path class="cls-4" d="M58.71,148.12l.42,0C61.2,148,71.07,146.57,87,133.16c17.42-14.69,29.74-24.68,30.49-25.29a0,0,0,0,1,0,0l0,0"/><path class="cls-7" d="M176,108.44l-7.27,7.12a4.28,4.28,0,1,0,5.45,6.61h0l.09-.09.3-.29,8.21-8.14.74-.74-6.37-5.61Z"/><path class="cls-7" d="M195,122,189,129.75a4.29,4.29,0,0,0,4,7.13,4.36,4.36,0,0,0,2.29-1.29h0l.09-.1.25-.33,6.81-8.82.9-1.16-7-4.73Z"/><path class="cls-7" d="M213.22,132l-4.1,7.89a4.28,4.28,0,0,0,5.13,6.34,4.18,4.18,0,0,0,2-1.66h0l.06-.12a2.64,2.64,0,0,0,.2-.37l4.42-8.61,1.11-2.17-7.74-3.46Z"/><path class="cls-7" d="M233.26,139.91l-2.41,7.89a4.28,4.28,0,1,0,7.9,3.3h0l0-.12c0-.13.09-.27.13-.4l2.49-8.32,1-3.29-8.24-2Z"/><path class="cls-7" d="M255.14,145.42l-1.55,7.9a4.28,4.28,0,0,0,6.72,4.64,4.21,4.21,0,0,0,1.47-2.17h0l0-.12a3,3,0,0,0,.09-.41l1.59-8.34.67-3.56-8.4-1.15Z"/><path class="cls-7" d="M279.24,149l-1,9a4.28,4.28,0,1,0,8.38,1.76h0v-.13a2,2,0,0,0,.05-.42l1-9.49.26-2.56-8.47-.41Z"/><path class="cls-7" d="M291.89,229.32s1.63,5.37,4.89,6a10.78,10.78,0,0,0,4.32-.68,80.68,80.68,0,0,0,14.06-6.28l.36-.22c3.72-2.28,4.93-4.38,4.93-4.38a24.8,24.8,0,0,0-3.65-5.64h0"/><path class="cls-7" d="M301.1,234.6l2.5,4.54s-10.82,5-10.82,10.52c0,0,3.86,11.41,5.41,15.27s8.38,4.89,16.53,2.67S334,262,341.4,248.35c1.18-2.39-5.79-11.81-7.12-14.1a7.7,7.7,0,0,0-7.78-3.63,54.32,54.32,0,0,0-9,2l-2-4.52"/><circle class="cls-8" cx="59.37" cy="254.22" r="24.77"/><path d="M59.38,240.65A13.57,13.57,0,1,0,73,254.22,13.57,13.57,0,0,0,59.38,240.65Zm0,24.66a11.1,11.1,0,1,1,11.1-11.09A11.1,11.1,0,0,1,59.38,265.31Z"/><path class="cls-9" d="M59.38,289.57a35.36,35.36,0,1,1,35.36-35.36A35.4,35.4,0,0,1,59.38,289.57Zm0-60.21a24.86,24.86,0,1,0,24.85,24.85A24.87,24.87,0,0,0,59.38,229.36Z"/><path d="M59.38,219a35.27,35.27,0,1,1-35.27,35.27A35.31,35.31,0,0,1,59.38,219m0,60.21a24.95,24.95,0,1,0-25-24.94,25,25,0,0,0,25,24.94m0-60.39a35.45,35.45,0,1,0,35.45,35.45,35.45,35.45,0,0,0-35.45-35.45Zm0,60.21a24.77,24.77,0,1,1,24.76-24.76A24.76,24.76,0,0,1,59.38,279Z"/><circle class="cls-8" cx="229.91" cy="254.22" r="24.77"/><path d="M229.92,240.65a13.57,13.57,0,1,0,13.56,13.57A13.56,13.56,0,0,0,229.92,240.65Zm0,24.66A11.1,11.1,0,1,1,241,254.22,11.1,11.1,0,0,1,229.92,265.31Z"/><path class="cls-9" d="M229.92,289.57a35.36,35.36,0,1,1,35.35-35.36A35.4,35.4,0,0,1,229.92,289.57Zm0-60.21a24.86,24.86,0,1,0,24.85,24.85A24.88,24.88,0,0,0,229.92,229.36Z"/><path d="M229.92,219a35.27,35.27,0,1,1-35.27,35.27A35.31,35.31,0,0,1,229.92,219m0,60.21A24.95,24.95,0,1,0,205,254.22a25,25,0,0,0,24.95,24.94m0-60.39a35.45,35.45,0,1,0,35.45,35.45,35.45,35.45,0,0,0-35.45-35.45Zm0,60.21a24.77,24.77,0,1,1,24.76-24.76A24.76,24.76,0,0,1,229.92,279Z"/><g id="Anabolix_Crown" data-name="Anabolix Crown"><g class="cls-10"><g class="cls-10"><path class="cls-2" d="M75,124.68a28,28,0,0,1-4.48.27l0-.09a9.87,9.87,0,0,1-2.41-3.27c-1-2.17-1-3-1.68-3.17s-1.6.94-3.25,1.91a27.1,27.1,0,0,1-4,1.77,14,14,0,0,1-5.49-4.3,1,1,0,0,0-.71-.42.92.92,0,0,0-.64.27,17.35,17.35,0,0,1-5.56,4.45,26,26,0,0,1-3.84-1.75c-1.64-1-2.55-2.07-3.23-1.94s-.65,1-1.71,3.15a10.08,10.08,0,0,1-2.44,3.24,30.06,30.06,0,0,1-6.51-.47s-1.3-.08-1.46.36a.46.46,0,0,0,.16.61s2.2.74,5.62,4.07,4,11.25,4,11.25a.42.42,0,0,1,0-.07c.18-.09,6-2.77,15.73-2.58s15.39,2.72,15.49,2.77v0s.09-.49.27-1.82A16.79,16.79,0,0,1,72,130.15c2.75-3.54,4.7-4.11,5.39-4.47s1.25-.52,1-1.09-1.34-.06-3.3.09m-11.51-2.93c2.4-1.1,2.41-1.24,2.41-1.24a10.45,10.45,0,0,0,2.17,2.94,12.92,12.92,0,0,0,2.07,1.48,32,32,0,0,1-7-1.32,25.43,25.43,0,0,1-3.43-1.25,7.33,7.33,0,0,0,3.8-.61m-10.79.34h0l4,9.28h-8ZM38,123.41a10.26,10.26,0,0,0,2.19-2.92s0,.15,2.4,1.28a7.34,7.34,0,0,0,3.58.65,21.32,21.32,0,0,1-4,1.46,29.68,29.68,0,0,1-6.14.9A13.08,13.08,0,0,0,38,123.41m-2,8.85a14.87,14.87,0,0,0-5-6.43,23.93,23.93,0,0,0,12.74-.77,29,29,0,0,0,6.2-3l-6.82,15.32a1.55,1.55,0,0,0-.09.29,15.1,15.1,0,0,0-5.72,2.93A18.79,18.79,0,0,0,36,132.26m17,4a35.46,35.46,0,0,0-6.44.53L48,133.34h9.54L59,136.76a35.47,35.47,0,0,0-6-.5m17.3-4.8c-2.24,3.73-1.77,8.81-1.72,9.28a15,15,0,0,0-5.87-3.11,1.48,1.48,0,0,0-.09-.28l-6.76-15.2a23.8,23.8,0,0,0,7,3c7.72,2.08,11.82.86,11.82.86a19.48,19.48,0,0,0-4.43,5.43"/><path class="cls-2" d="M25.46,122.16A1.84,1.84,0,1,0,27.29,124a1.84,1.84,0,0,0-1.83-1.84m.49,3.26A1.09,1.09,0,1,1,27,124.33,1.09,1.09,0,0,1,26,125.42"/><path class="cls-2" d="M80.43,122.16A1.84,1.84,0,1,0,82.27,124a1.83,1.83,0,0,0-1.84-1.84m-.49,3.26A1.09,1.09,0,1,1,81,124.33a1.09,1.09,0,0,1-1.09,1.09"/><path class="cls-2" d="M37.84,118.17a1.83,1.83,0,1,0-1-2.4,1.84,1.84,0,0,0,1,2.4m0-1.61a1.09,1.09,0,1,1,.57,1.44,1.09,1.09,0,0,1-.57-1.44"/><path class="cls-2" d="M68.27,118.21a1.83,1.83,0,1,0-2.4-1,1.84,1.84,0,0,0,2.4,1M66.81,116a1.09,1.09,0,1,1-.58,1.43,1.09,1.09,0,0,1,.58-1.43"/><path class="cls-2" d="M54.16,116.29a1.83,1.83,0,1,0-2.58.15,1.83,1.83,0,0,0,2.58-.15m-2-1.37a1.09,1.09,0,0,1,1.54-.09,1.09,1.09,0,1,1-1.45,1.63,1.09,1.09,0,0,1-.09-1.54"/></g></g></g></g></svg>