<svg id="SESSION_SKATE_ICON" data-name="SESSION SKATE ICON" xmlns="http://www.w3.org/2000/svg" viewBox="0 0 364.62 338.85"><defs><style>.cls-1{fill:#fff;}.cls-2,.cls-3,.cls-4{fill:none;stroke-miterlimit:10;}.cls-2,.cls-4{stroke:#000;}.cls-2,.cls-3{stroke-width:1.25px;}.cls-3{stroke:#fff;}.cls-4{stroke-width:0.69px;}.cls-5{fill:#b0b0b0;}.cls-6{fill:#dfdfe1;}</style></defs><title>AnabolixIcon</title><path d="M299.19,170.3c26.56-1.77,39.76,26.32,33.68,41.95,0,0-32.18,20.72-72.29,20.72H195.87s-68.41-30-89.13-29.53C57.09,202.85,45,189.34,45,189.34a42.14,42.14,0,0,1-7.49-44.53A306.59,306.59,0,0,0,57.4,60.9s50.67-27.16,63.89-32,21.6.87,22.48,10.14c.59,6.25,5.4,30.9,17,53.88,5.6,11.1,12.78,21.82,21.83,29.86q1.92,1.71,3.9,3.4l-10,11.29a5.74,5.74,0,0,0,5.5,9.46,5.66,5.66,0,0,0,3-1.78h0l.1-.14a4.43,4.43,0,0,0,.34-.45l9.78-11.1q3.25,2.58,6.71,5.15l-7.66,11.66a5.74,5.74,0,1,0,9.61,6.27h0l.09-.15c.1-.16.18-.34.26-.5L211,145c2.56,1.71,5.19,3.39,7.88,5l-6.09,11.56a5.73,5.73,0,1,0,10,5.53h0L223,167c.08-.18.17-.34.23-.51l5.41-11c2.37,1.24,4.77,2.43,7.22,3.55l-4.55,12a5.74,5.74,0,0,0,8.43,7,5.67,5.67,0,0,0,2.23-2.72l.07-.16c.06-.18.11-.35.16-.54l3.92-11.28q3.39,1.28,6.86,2.37l-2.25,12.8a5.74,5.74,0,0,0,9.58,5.28,5.78,5.78,0,0,0,1.68-3.09l0-.17c0-.19,0-.38.06-.56l1.7-11.4c2.77.58,5.58,1.08,8.42,1.47l-.93,12.59a5.74,5.74,0,1,0,11.43,1h0v-.18a2.62,2.62,0,0,0,0-.56l.57-12a102.85,102.85,0,0,0,14.82-.59C298.43,170.34,298.81,170.32,299.19,170.3ZM171.65,127.75a5.74,5.74,0,1,0-5.73,5.72A5.73,5.73,0,0,0,171.65,127.75Zm-11.47-16a5.73,5.73,0,1,0-5.73,5.73A5.72,5.72,0,0,0,160.18,111.73Zm-9.61-17.61a5.74,5.74,0,1,0-5.74,5.73A5.74,5.74,0,0,0,150.57,94.12Zm-7.68-17.61a5.74,5.74,0,1,0-5.74,5.73A5.73,5.73,0,0,0,142.89,76.51Zm-5.74-21.62a5.73,5.73,0,1,0-5.73,5.73A5.73,5.73,0,0,0,137.15,54.89Z"/><path d="M332.87,212.25c1.91,12.93-11.32,16-11.32,16s-30.27,10.19-45.84,13.13-68.42,5.77-105.71,0c-36.08-5.59-64.14,0-64.14,0l-50.68-4S45,212.25,45,189.34c0,0,12.06,13.51,61.71,14.1C127.46,203,195.87,233,195.87,233h64.71C300.69,233,332.87,212.25,332.87,212.25Z"/><path d="M321.55,228.22c0,12.72-18.8,19.3-27,23.13s-23.51-4.41-38.21-1.78S177,258.1,148.77,256.93s-59.27-3.34-59.27-3.34l-21.84,3.34c-6.76-4.41-12.48-19.55-12.48-19.55l50.68,4s28.06-5.59,64.14,0c37.29,5.77,90.13,2.94,105.71,0S321.55,228.22,321.55,228.22Z"/><path d="M299.19,170.29h0c-.38,0-.76,0-1.14.08a102.85,102.85,0,0,1-14.82.59l.52-11.36,2.54.34C297.3,161.27,299.19,170.29,299.19,170.29Z"/><path class="cls-1" d="M284,154.77l-.23,4.84c-3.72-.52-7.28-1.11-10.72-1.8l.33-4.43Z"/><path class="cls-1" d="M283.75,159.61,283.23,171a106.78,106.78,0,0,1-11.08-.94l.88-12.22C276.47,158.5,280,159.09,283.75,159.61Z"/><path class="cls-1" d="M283.23,171l-.57,12a2.62,2.62,0,0,1,0,.56v.18h0a5.74,5.74,0,1,1-11.43-1l.93-12.59A106.78,106.78,0,0,0,283.23,171Z"/><path d="M273,157.81,272.15,170c-2.84-.39-5.65-.89-8.42-1.47l1.84-12.38C268,156.78,270.47,157.31,273,157.81Z"/><path class="cls-1" d="M266.18,152.06l-.61,4.12c-3.65-.88-7.12-1.86-10.44-2.92l.63-3.64Z"/><path class="cls-1" d="M265.57,156.18l-1.84,12.38q-5.49-1.19-10.8-2.86l2.2-12.44C258.45,154.32,261.92,155.3,265.57,156.18Z"/><path class="cls-1" d="M263.73,168.56,262,180c0,.18,0,.37-.06.56l0,.17a5.73,5.73,0,0,1-9.8,2.88,5.71,5.71,0,0,1-1.46-5.07l2.25-12.8Q258.24,167.37,263.73,168.56Z"/><path d="M255.13,153.26l-2.2,12.44q-3.47-1.09-6.86-2.37l4.1-11.76Q252.59,152.45,255.13,153.26Z"/><path class="cls-1" d="M251.42,148l-1.25,3.6q-5.26-1.9-10-4.12l1.45-3.81Z"/><path class="cls-1" d="M250.17,151.57l-4.1,11.76c-3.48-1.28-6.91-2.72-10.26-4.28l4.38-11.6Q244.92,149.65,250.17,151.57Z"/><path class="cls-1" d="M246.07,163.33l-3.92,11.28c-.05.19-.1.36-.16.54l-.07.16a5.67,5.67,0,0,1-2.23,2.72,5.74,5.74,0,0,1-8.43-7l4.55-12C239.16,160.61,242.59,162.05,246.07,163.33Z"/><path d="M240.19,147.45l-4.38,11.6c-2.45-1.12-4.85-2.31-7.22-3.55l5.49-11.12Q237,146,240.19,147.45Z"/><path class="cls-1" d="M235.67,141.17l-1.59,3.21a99.19,99.19,0,0,1-9.23-5.6l1.65-3.13Z"/><path class="cls-1" d="M234.08,144.38l-5.49,11.12q-5-2.59-9.67-5.47l5.93-11.25A99.19,99.19,0,0,0,234.08,144.38Z"/><path class="cls-1" d="M228.59,155.5l-5.41,11c-.06.17-.15.33-.23.51l-.07.16h0a5.73,5.73,0,1,1-10-5.53L218.92,150Q223.65,152.89,228.59,155.5Z"/><path d="M224.85,138.78,218.92,150c-2.69-1.61-5.32-3.29-7.88-5l7-11.24C220.21,135.52,222.48,137.2,224.85,138.78Z"/><path class="cls-1" d="M220.83,129.31l-2.78,4.48c-2.9-2.33-5.61-4.74-8.18-7.26l2.22-3.39Z"/><path class="cls-1" d="M218.05,133.79,211,145c-3.12-2.1-6.16-4.25-9.09-6.42l7.92-12.08C212.44,129.05,215.15,131.46,218.05,133.79Z"/><path class="cls-1" d="M211,145l-6.78,10.86c-.08.16-.16.34-.26.5l-.09.15h0a5.74,5.74,0,1,1-9.61-6.27L202,138.61C204.88,140.78,207.92,142.93,211,145Z"/><path d="M209.87,126.53,202,138.61q-3.45-2.56-6.71-5.15l10.15-11.54Q207.55,124.28,209.87,126.53Z"/><path class="cls-1" d="M200.31,110.49l7.37,8.83-2.29,2.6c-2.61-2.83-5.07-5.78-7.4-8.79Z"/><path class="cls-1" d="M205.39,121.92l-10.15,11.54c-3.05-2.42-6-4.86-8.78-7.29l11.53-13C200.32,116.14,202.78,119.09,205.39,121.92Z"/><path d="M198,113.13l-11.53,13q-2-1.69-3.9-3.4c-9.05-8-16.23-18.76-21.83-29.86h0C158.76,76.27,148,40.13,148,40.13s-1.19-11.41,9.33-10.69c8.33.57,8,6,8.81,8.55,0,0,10.16,45,28,69.94C195.38,109.68,196.66,111.42,198,113.13Z"/><path class="cls-1" d="M195.24,133.46l-9.78,11.1a4.43,4.43,0,0,1-.34.45l-.1.14h0a5.66,5.66,0,0,1-3,1.78,5.74,5.74,0,0,1-5.5-9.46l10-11.29C189.27,128.6,192.19,131,195.24,133.46Z"/><path class="cls-1" d="M165.92,122a5.73,5.73,0,1,1-5.74,5.73A5.73,5.73,0,0,1,165.92,122Z"/><circle class="cls-1" cx="154.45" cy="111.73" r="5.73"/><circle class="cls-1" cx="144.83" cy="94.12" r="5.73"/><circle class="cls-1" cx="137.15" cy="76.51" r="5.73"/><path class="cls-1" d="M131.42,49.16a5.73,5.73,0,1,1-5.72,5.73A5.73,5.73,0,0,1,131.42,49.16Z"/><path class="cls-2" d="M283.75,159.61l2.54.34c11,1.32,12.9,10.34,12.9,10.34"/><path class="cls-2" d="M265.57,156.18c2.41.6,4.9,1.13,7.46,1.63"/><path class="cls-2" d="M250.17,151.57q2.42.88,5,1.69"/><path class="cls-2" d="M234.08,144.38q2.94,1.6,6.11,3.07"/><path class="cls-2" d="M218.05,133.79c2.16,1.73,4.43,3.41,6.8,5"/><path class="cls-2" d="M205.39,121.92q2.16,2.35,4.48,4.61"/><path class="cls-2" d="M160.75,92.91C158.76,76.27,148,40.13,148,40.13s-1.19-11.41,9.33-10.69c8.33.57,8,6,8.81,8.55,0,0,10.16,45,28,69.94,1.26,1.75,2.54,3.49,3.87,5.2"/><path class="cls-3" d="M186.46,126.17q-2-1.69-3.9-3.4c-9.05-8-16.23-18.76-21.83-29.86-11.56-23-16.37-47.63-17-53.88-.88-9.27-9.25-15-22.48-10.14s-63.89,32-63.89,32a306.59,306.59,0,0,1-19.86,83.91A42.14,42.14,0,0,0,45,189.34c0,22.91,10.15,48,10.15,48l50.68,4s28.06-5.59,64.14,0c37.29,5.77,90.13,2.94,105.71,0s45.84-13.13,45.84-13.13"/><path class="cls-3" d="M202,138.61q-3.45-2.56-6.71-5.15"/><path class="cls-3" d="M218.92,150c-2.69-1.61-5.32-3.29-7.88-5"/><path class="cls-3" d="M235.81,159.05c-2.45-1.12-4.85-2.31-7.22-3.55"/><path class="cls-3" d="M252.93,165.7q-3.47-1.09-6.86-2.37"/><path class="cls-3" d="M272.15,170c-2.84-.39-5.65-.89-8.42-1.47"/><path class="cls-3" d="M106.74,203.44C127.46,203,195.87,233,195.87,233h64.71c40.11,0,72.29-20.72,72.29-20.72,6.08-15.63-7.12-43.72-33.68-41.95-.38,0-.76,0-1.14.08a102.85,102.85,0,0,1-14.82.59"/><path class="cls-3" d="M55.18,237.38s5.72,15.14,12.48,19.55l21.84-3.34s31.06,2.15,59.27,3.34,92.85-4.71,107.54-7.36,30,5.58,38.21,1.78,27-10.41,27-23.13c0,0,13.23-3,11.32-16"/><path class="cls-3" d="M45,189.34s12.06,13.51,61.71,14.1"/><path class="cls-2" d="M137.15,54.89a5.73,5.73,0,1,1-5.73-5.73A5.72,5.72,0,0,1,137.15,54.89Z"/><circle class="cls-2" cx="137.15" cy="76.51" r="5.73"/><circle class="cls-2" cx="144.83" cy="94.12" r="5.73"/><circle class="cls-2" cx="154.45" cy="111.73" r="5.73"/><path class="cls-2" d="M171.65,127.75a5.74,5.74,0,1,1-5.73-5.73A5.73,5.73,0,0,1,171.65,127.75Z"/><path class="cls-4" d="M186.46,126.17l-10,11.29a5.74,5.74,0,0,0,5.5,9.46,5.66,5.66,0,0,0,3-1.78h0l.1-.14a4.43,4.43,0,0,0,.34-.45l9.78-11.1,10.15-11.54,2.29-2.6-7.37-8.83L198,113.13Z"/><path class="cls-4" d="M202,138.61l-7.66,11.66a5.74,5.74,0,1,0,9.61,6.27h0l.09-.15c.1-.16.18-.34.26-.5L211,145l7-11.24,2.78-4.48-8.74-6.17-2.22,3.39Z"/><path class="cls-4" d="M218.92,150l-6.09,11.56a5.73,5.73,0,1,0,10,5.53h0L223,167c.08-.18.17-.34.23-.51l5.41-11,5.49-11.12,1.59-3.21-9.17-5.52-1.65,3.13Z"/><path class="cls-4" d="M235.81,159.05l-4.55,12a5.74,5.74,0,0,0,8.43,7,5.67,5.67,0,0,0,2.23-2.72l.07-.16c.06-.18.11-.35.16-.54l3.92-11.28,4.1-11.76,1.25-3.6-9.78-4.33-1.45,3.81Z"/><path class="cls-4" d="M252.93,165.7l-2.25,12.8a5.74,5.74,0,0,0,9.58,5.28,5.78,5.78,0,0,0,1.68-3.09l0-.17c0-.19,0-.38.06-.56l1.7-11.4,1.84-12.38.61-4.12-10.42-2.44-.63,3.64Z"/><path class="cls-4" d="M272.15,170l-.93,12.59a5.74,5.74,0,1,0,11.43,1h0v-.18a2.62,2.62,0,0,0,0-.56l.57-12,.52-11.36.23-4.84-10.62-1.39-.33,4.43Z"/><circle class="cls-5" cx="92.63" cy="277.26" r="21.6"/><path d="M92.64,265.42a11.84,11.84,0,1,0,11.83,11.84A11.84,11.84,0,0,0,92.64,265.42Zm0,21.52a9.68,9.68,0,1,1,9.68-9.68A9.68,9.68,0,0,1,92.64,286.94Z"/><path class="cls-6" d="M92.64,308.1a30.85,30.85,0,1,1,30.84-30.84A30.88,30.88,0,0,1,92.64,308.1Zm0-52.52a21.68,21.68,0,1,0,21.68,21.68A21.7,21.7,0,0,0,92.64,255.58Z"/><path d="M92.64,246.49a30.77,30.77,0,1,1-30.76,30.77,30.8,30.8,0,0,1,30.76-30.77m0,52.53a21.76,21.76,0,1,0-21.76-21.76A21.79,21.79,0,0,0,92.64,299m0-52.69a30.93,30.93,0,1,0,30.92,30.93,30.92,30.92,0,0,0-30.92-30.93Zm0,52.53a21.6,21.6,0,1,1,21.6-21.6,21.61,21.61,0,0,1-21.6,21.6Z"/><circle class="cls-5" cx="254.47" cy="277.26" r="21.6"/><path d="M254.48,265.42a11.84,11.84,0,1,0,11.83,11.84A11.84,11.84,0,0,0,254.48,265.42Zm0,21.52a9.68,9.68,0,1,1,9.68-9.68A9.68,9.68,0,0,1,254.48,286.94Z"/><path class="cls-6" d="M254.48,308.1a30.85,30.85,0,1,1,30.84-30.84A30.88,30.88,0,0,1,254.48,308.1Zm0-52.52a21.68,21.68,0,1,0,21.68,21.68A21.7,21.7,0,0,0,254.48,255.58Z"/><path d="M254.48,246.49a30.77,30.77,0,1,1-30.76,30.77,30.8,30.8,0,0,1,30.76-30.77m0,52.53a21.76,21.76,0,1,0-21.76-21.76A21.79,21.79,0,0,0,254.48,299m0-52.69a30.93,30.93,0,1,0,30.92,30.93,30.93,30.93,0,0,0-30.92-30.93Zm0,52.53a21.6,21.6,0,1,1,21.6-21.6,21.61,21.61,0,0,1-21.6,21.6Z"/></svg>