<svg id="Layer_1" data-name="Layer 1" xmlns="http://www.w3.org/2000/svg" viewBox="0 0 50 44.8"><defs><style>.cls-1{fill:#008ccc;}</style></defs><title>skate</title><g id="roller-skates"><path id="Path_46" data-name="Path 46" class="cls-1" d="M18.13,31.26l.21,0,16.74,0c.18,0,4.45,0,6.17-.26h.07A19.82,19.82,0,0,0,44.63,30c2.56-1,4.07-2.32,4.5-4a1.63,1.63,0,0,0-.07-1A14.45,14.45,0,0,0,46.35,21a12.44,12.44,0,0,0-9.23-4.05,13.64,13.64,0,0,1-5.74-1.4l-5.5,5.11A1.4,1.4,0,0,1,25,21a1.44,1.44,0,0,1-1.13-.56,1.59,1.59,0,0,1,.2-2.16l4.7-4.37h0a19.4,19.4,0,0,1-1.55-1.22L27,12.47l-5.3,4.45a1.41,1.41,0,0,1-.84.28,1.44,1.44,0,0,1-1.2-.66A1.6,1.6,0,0,1,20,14.4l4.88-4.09c-.42-.5-.81-1-1.18-1.55h0L18.76,12.9a1.39,1.39,0,0,1-.84.28,1.47,1.47,0,0,1-1.2-.66,1.59,1.59,0,0,1,.36-2.14l5.07-4.26a18.27,18.27,0,0,1-1-2.57,1.5,1.5,0,0,0-1.08-1C17,1.81,12,3.3,8.56,5a3.26,3.26,0,0,1-2.65-.11,1.39,1.39,0,0,0-1.27,0,1.51,1.51,0,0,0-.81,1L1.65,14.8A23.72,23.72,0,0,0,1,19.17H1c0,.26,0,.59,0,1V31.26Z" transform="translate(-1 -2.34)"/><path id="Path_47" data-name="Path 47" class="cls-1" d="M51,30.58A16.17,16.17,0,0,0,50.11,28a12,12,0,0,1-4.39,2.7,22.47,22.47,0,0,1-3.85,1.08l-.17,0a62,62,0,0,1-6.54.29h0l-16.62,0-.36,0H1v.85a4.17,4.17,0,0,0,1.07,2.91,3.11,3.11,0,0,0,2.3,1H6.47a7,7,0,0,0-1,3.59,6.54,6.54,0,0,0,6.36,6.68,6.53,6.53,0,0,0,6.35-6.68,6.91,6.91,0,0,0-1-3.6l13.75,0a6.85,6.85,0,0,0-1,3.63,6.36,6.36,0,0,0,12.71.64c0-.22,0-.43,0-.64a6.93,6.93,0,0,0-1.1-3.75c.82-.05,1.59-.11,2.13-.2h0c.65-.1,6.35-1.1,7.31-5.25A1.56,1.56,0,0,0,51,30.58ZM11.83,44.06a3.6,3.6,0,0,1,0-7.2,3.6,3.6,0,0,1,0,7.2Zm24.41,0a3.6,3.6,0,1,1,3.42-3.78v.18A3.52,3.52,0,0,1,36.24,44.06Z" transform="translate(-1 -2.34)"/><path id="Path_48" data-name="Path 48" class="cls-1" d="M36.21,38.66a1.54,1.54,0,0,0-1.54,1.54h0v.38a1.54,1.54,0,0,0,3.08.08V40.2A1.54,1.54,0,0,0,36.21,38.66Z" transform="translate(-1 -2.34)"/><path id="Path_49" data-name="Path 49" class="cls-1" d="M11.87,38.66a1.54,1.54,0,0,0-1.54,1.54h0v.38a1.54,1.54,0,1,0,3.08.08V40.2A1.54,1.54,0,0,0,11.87,38.66Z" transform="translate(-1 -2.34)"/></g></svg>