<svg xmlns="http://www.w3.org/2000/svg" viewBox="0 0 357.98 360"><defs><style>.cls-1{fill:#fff;}.cls-2,.cls-3,.cls-4,.cls-5,.cls-6,.cls-7{fill:none;}.cls-2,.cls-4,.cls-6{stroke:#000;}.cls-2,.cls-3,.cls-4,.cls-5,.cls-6{stroke-miterlimit:10;}.cls-2{stroke-width:0.76px;}.cls-3,.cls-5{stroke:#fff;}.cls-3,.cls-4{stroke-width:0.25px;}.cls-5{stroke-width:0.51px;}.cls-6{stroke-width:0.31px;}.cls-7{stroke:#231f20;stroke-linecap:round;stroke-linejoin:round;stroke-width:0.5px;}</style></defs><title>AnabolixIcon</title><g id="Layer_7" data-name="Layer 7"><path d="M56.82,269.42a38.65,38.65,0,1,1,38.65-38.65A38.7,38.7,0,0,1,56.82,269.42Zm.6-29.24-3.66,15.41.5,0a24,24,0,0,0,2.54.13,25.14,25.14,0,0,0,11.76-2.93l.44-.24-9.13-13ZM35.61,244l.27.41a24.94,24.94,0,0,0,11.18,9.35l.46.2,4.33-15.26-2-1.56Zm28.9-7.79,9.68,12.54.35-.36a24.89,24.89,0,0,0,6.82-12.88l.1-.49L65.63,234ZM33,223.1a24.94,24.94,0,0,0-.24,14.57l.14.48,14.59-6.24,0-2.51-14.31-6.78Zm31.83,2.84,1,2.29,15.83.37,0-.5A25,25,0,0,0,76,214.7l-.32-.38Zm-17-18.49a24.94,24.94,0,0,0-11.47,9l-.28.41,14,7.41,1.93-1.6-3.73-15.39Zm8.07-1.66,2.25,15.7,2.43.62,10.25-12.06-.42-.28a25,25,0,0,0-13.59-4Z"/><path d="M56.82,192.56a38.21,38.21,0,1,1-38.21,38.21,38.25,38.25,0,0,1,38.21-38.21m3.9,30.05.35-.42,9.75-11.48.65-.76-.84-.55a25.43,25.43,0,0,0-13.83-4.06h-.43l-1,0,.15,1,2.13,14.92.08.58.57.15,1.89.48.53.14m-10.59,2.17.45-.37,1.5-1.24.43-.35-.13-.53-3.56-14.64-.23-1-.94.36A25.45,25.45,0,0,0,36,216.19l-.57.81.88.47,13.32,7,.52.27m32.09,4.27-.1-1a25.41,25.41,0,0,0-5.82-13.64l-.64-.77-.68.73L64.73,225.43l-.39.43.24.53.81,1.77.23.5h.55l15,.36,1,0m-49.57,9.7.91-.39,13.86-5.93.54-.23v-.58l0-2v-.55l-.5-.23-13.61-6.45-.9-.43-.31,1a25.49,25.49,0,0,0-.24,14.83l.28,1m41.49,10.68.71-.71a25.4,25.4,0,0,0,6.94-13.1l.19-1-1-.07-15-1-.58,0-.26.53-.87,1.74-.24.49.33.43,9.2,11.93.61.79m-26.33,5.15.27-1,4.12-14.5.16-.56-.46-.36L50.37,237l-.43-.34-.49.23L35.87,243.4l-.9.44.55.83a25.34,25.34,0,0,0,11.37,9.52l.92.39m9,1.63a25.66,25.66,0,0,0,12-3l.88-.47-.57-.81L60.4,239.62l-.34-.48-.57.13-1.9.43-.53.12-.13.53L53.45,255l-.23,1,1,.1a24.63,24.63,0,0,0,2.58.13m0-64.53a39.09,39.09,0,1,0,39.09,39.09,39.09,39.09,0,0,0-39.09-39.09Zm3.58,29.94-1.88-.49-2.13-14.91h.41a24.65,24.65,0,0,1,13.35,3.93L60.4,221.62ZM50,223.73l-13.32-7A24.64,24.64,0,0,1,48,207.86l3.55,14.63L50,223.73Zm31.22,4.42-15-.36L65.38,226,75.63,215a24.65,24.65,0,0,1,5.61,13.17Zm-48,9.4a24.69,24.69,0,0,1,.22-14.32l13.61,6.45,0,1.95-13.85,5.92Zm41,10.55L65,236.18l.86-1.74,15,1a24.66,24.66,0,0,1-6.7,12.65Zm-27,5.28a24.61,24.61,0,0,1-11-9.19l13.58-6.51,1.52,1.2-4.12,14.5Zm9.57,2a23.07,23.07,0,0,1-2.49-.13l3.48-14.65,1.89-.42,8.68,12.32a24.72,24.72,0,0,1-11.56,2.88Z"/><path d="M311.66,231.77c1.53,1.22,1.53,7.49-3.77,8.19-10.82,1.18-27.53-6.12-53.06-12.82s-22.58,14.23-35.41,14.23-3.06-15.88-39.75-15.88-32.37,15.88-42.84,15.88S131,229,115.89,225.73s-46.59,9.76-60.7,13.88-11.65-10.12-8.59-12.12c10-6.7,32.94-20.47,41.76-24.82,6.6-3.25,2.64-9.06.21-11.79,9.9-6.76,24-.47,32,3.75s48.72,6.17,71.28,2.8,48.78-1.27,48.78-1.27,16.71-5.89,20-8.15a4.51,4.51,0,0,0,.59-.47c-.1,2.45.87,4.54,4.44,4.54,8.7,0,5.17,3.88,2.58,6.12s-5.05,7.06-.35,9.41C287.66,215.14,310.13,230.55,311.66,231.77Zm-62.47-23.45c8-4.12,6.94-7.89,2.11-7.89H215.66c-7.65,0-12,1.41-12,6.47,0,0-.16,3,2.35,3.62,3.43.84,10.71,7.09,10.71,7.09h12.64C233.41,217.61,241.19,212.43,249.19,208.32Zm-70.8,5.91c3.29,0,6.68-1.06,6.33-3.36s-2.48-9.44-6.33-9.44c-3.51,0-5.14,6.8-5.85,9.62S175.1,214.23,178.39,214.23Zm-25.21-5.91c4-2.56-3.26-8.74-8.08-8.74s-18.38-.42-26-.42-11.42,2.68-11.42,7.74c0,0-.15,3,2.36,3.62,3.42.84,10.7,7.09,10.7,7.09h12.65C137.41,217.61,145.6,213.16,153.18,208.32Z"/><path d="M259.91,149.76c8.32,3.45,15.92,9.91,11.9,19.69a1.11,1.11,0,0,1,0,.13c-28.29,9.43-54.71,13.89-84.38,10.34-11.78-1.41-22.44-2.46-32.47-3.19a92.43,92.43,0,0,1-7.51-14.84C143.26,151.77,138,146,123.37,146a157.45,157.45,0,0,1-17-.91c1.25-.09,7.19-.93,16.75-9,10.49-8.85,17.91-14.86,18.36-15.23-6.12,5.68-11.38,11.07-11.69,13.89-.48,4.35,2.5,12.33,11.66,9.59s28.17-26.2,28.17-26.2l1.35-2s2.05,2,5.75,5l-4.38,4.3a2.57,2.57,0,0,0,1.82,4.56,2.51,2.51,0,0,0,1.46-.59h0l.05,0,.18-.18,4.94-4.9c2.16,1.59,4.64,3.29,7.4,5l-3.66,4.68a2.54,2.54,0,0,0-.65,2.28,2.58,2.58,0,0,0,3,2,2.48,2.48,0,0,0,1.37-.78h0l0-.06.15-.2,4.1-5.3c2.06,1.16,4.24,2.3,6.53,3.4l-2.47,4.75a2.57,2.57,0,0,0,3.09,3.82,2.52,2.52,0,0,0,1.22-1h0l0-.07a.94.94,0,0,0,.12-.22l2.66-5.18c2.43,1,4.91,1.88,7.4,2.67l-1.45,4.74a2.58,2.58,0,1,0,4.76,2h0l0-.07c0-.08.05-.16.08-.24l1.49-5c2.83.75,5.62,1.38,8.27,1.9l-.94,4.76a2.58,2.58,0,1,0,4.94,1.49h0v-.08a1.84,1.84,0,0,0,.05-.25l1-5c3.69.6,6.95,1,9.48,1.25l-.59,5.4a2.58,2.58,0,1,0,5.05,1.06h0V152a1,1,0,0,0,0-.25L244,146l.44,0A56.78,56.78,0,0,1,259.91,149.76Z"/><path d="M155,176.73c10,.73,20.69,1.78,32.47,3.19,29.67,3.55,56.09-.91,84.38-10.34.11.78.52,4.87-2.16,7.6-1.19,1.37-5.95,2.5-5.95,2.5h0c-.25.08-34.78,10.65-61.1,8.66-12.88-1-24.94-3.15-37.22-5.08-12.91-2-26.05-3.79-40.6-3.58v5.59s-1.25,2-39.8-2c0,0-3.84-7.8-2.5-12.18l.54-.71s5.17,5.43,28.55,5.08C125.74,175.24,139.62,175.61,155,176.73Z"/><path d="M263.72,179.68s.21,5.32-2.5,7.86c.14-3.49,2.42-7.72,2.5-7.86Z"/><path d="M263.72,179.68c-.08.14-2.36,4.37-2.5,7.86a4.51,4.51,0,0,1-.59.47c-3.34,2.26-20,8.15-20,8.15s-26.22-2.1-48.78,1.27-63.25,1.48-71.28-2.8-22-10.51-31.95-3.75a17.86,17.86,0,0,0-1.46-1.49A30.48,30.48,0,0,1,85,185.81a4.36,4.36,0,0,1,0-2.55c38.55,4.06,39.8,2,39.8,2l40.6-2h0c12.28,1.93,24.34,4.11,37.22,5.08C228.94,190.33,263.47,179.76,263.72,179.68Z"/><path class="cls-1" d="M244.16,144.51,244,146c-.79,0-2.58-.16-5.09-.41l.15-1.37Z"/><path class="cls-1" d="M244,146l-.59,5.72a1,1,0,0,1,0,.25v.08h0a2.58,2.58,0,1,1-5.05-1.06l.59-5.4C241.42,145.88,243.21,146,244,146Z"/><path class="cls-1" d="M229.84,142.24l-.41,2.14c-1.6-.26-3.29-.56-5-.9l.38-1.93Z"/><path class="cls-1" d="M229.43,144.38l-1,5a1.84,1.84,0,0,1-.05.25v.08h0a2.58,2.58,0,1,1-4.94-1.49l.94-4.76C226.14,143.82,227.83,144.12,229.43,144.38Z"/><path class="cls-1" d="M216.73,139.6l-.6,2c-1.62-.43-3.27-.9-4.91-1.41l.54-1.77Z"/><path class="cls-1" d="M216.13,141.58l-1.49,5c0,.08,0,.16-.08.24l0,.07h0a2.58,2.58,0,1,1-4.76-2l1.45-4.74C212.86,140.68,214.51,141.15,216.13,141.58Z"/><path class="cls-1" d="M204.49,136.19l-.67,1.31-1.8-.77c-1-.44-1.93-.88-2.86-1.33l.67-1.3Z"/><path class="cls-1" d="M203.82,137.5l-2.66,5.18a.94.94,0,0,1-.12.22l0,.07h0a2.52,2.52,0,0,1-1.22,1,2.57,2.57,0,0,1-3.09-3.82l2.47-4.75c.93.45,1.89.89,2.86,1.33Z"/><path class="cls-1" d="M193.17,131.3l-.54.7c-1.54-.88-3-1.76-4.42-2.63l.72-.92Z"/><path class="cls-1" d="M192.63,132l-4.1,5.3-.15.2,0,.06h0a2.48,2.48,0,0,1-1.37.78,2.58,2.58,0,0,1-3-2,2.54,2.54,0,0,1,.65-2.28l3.66-4.68C189.61,130.24,191.09,131.12,192.63,132Z"/><path class="cls-1" d="M181.26,123.91l-.45.44c-1.52-1.12-2.89-2.17-4.08-3.14l.7-.68Z"/><path class="cls-1" d="M180.81,124.35l-4.94,4.9-.18.18-.05,0h0a2.51,2.51,0,0,1-1.46.59,2.57,2.57,0,0,1-1.82-4.56l4.38-4.3C177.92,122.18,179.29,123.23,180.81,124.35Z"/><path class="cls-1" d="M161.51,97.88l12.67,12.61s-.53,2.8-1.84,3.75l-1.36,2-1.35,2s-19,23.46-28.17,26.2-12.14-5.24-11.66-9.59c.31-2.82,5.57-8.21,11.69-13.89h0l0,0c3.31-3.07,6.88-6.23,10-9.11a49.82,49.82,0,0,0,5.27-5.5C161,101.11,161.51,97.88,161.51,97.88Z"/><path d="M150.56,102.74c-3.69-.37-8.55,1.41-16.29,5.61-27.49,16.06-49.76,7.54-49.76,7.54.35-.49-.28-1.23-.28-1.23,0-1.49,3.27-2.38,6.66-2.09s12.49,1,40.87-12.14c0,0,4.17-8.14,5.41-9.63a1.32,1.32,0,0,1,2.44.47s4,0,9.64,4.41,7.26,5.41,7.26,5.41,3-2.62,5-3.21c0,0-.51,3.23-4.67,8.36A9.74,9.74,0,0,0,150.56,102.74Z"/><path class="cls-1" d="M106.38,145.1a157.45,157.45,0,0,0,17,.91c14.64,0,19.89,5.76,24.1,15.88A92.43,92.43,0,0,0,155,176.73c-15.36-1.12-29.24-1.49-43.39-1.28C88.21,175.8,83,170.37,83,170.37s-6.54-15.87-3.44-37l.42.06S81.15,142.21,106.38,145.1Z"/><path d="M156.84,106.24a49.82,49.82,0,0,1-5.27,5.5c-3.17,2.88-6.74,6-10,9.11l0,0h0c-.45.37-7.87,6.38-18.36,15.23-9.56,8.07-15.5,8.91-16.75,9C81.15,142.21,80,133.42,80,133.42l-.42-.06c.31-2.08.71-4.22,1.22-6.4.43-2.73,1.74-3.56,3.05-3.56l.64,2.5s4.33-5.59,17.85-3.69,18.63,3.33,26.37-2.5c7.44-5.61,20.82-16.17,21.83-17A9.74,9.74,0,0,1,156.84,106.24Z"/><path d="M134.27,108.35c7.74-4.2,12.6-6,16.29-5.61-1,.8-14.39,11.36-21.83,17-7.74,5.83-12.85,4.4-26.37,2.5s-17.85,3.69-17.85,3.69l-.64-2.5s-1-5.46.64-7.51C84.51,115.89,106.78,124.41,134.27,108.35Z"/><path class="cls-1" d="M141.5,120.87l0,0Z"/><path d="M88.57,190.88l-.32.22s-.52-.76-1.14-1.71A17.86,17.86,0,0,1,88.57,190.88Z"/><path class="cls-2" d="M176.73,121.21c-3.7-3-5.75-5-5.75-5"/><path class="cls-2" d="M188.21,129.37c-2.76-1.73-5.24-3.43-7.4-5"/><path class="cls-2" d="M199.16,135.4c-2.29-1.1-4.47-2.24-6.53-3.4"/><path class="cls-2" d="M211.22,140.17c-2.49-.79-5-1.67-7.4-2.67"/><path class="cls-2" d="M224.4,143.48c-2.65-.52-5.44-1.15-8.27-1.9"/><path class="cls-2" d="M238.91,145.63c-2.53-.25-5.79-.65-9.48-1.25"/><path class="cls-2" d="M172.34,114.24c1.31-.95,1.84-3.75,1.84-3.75L161.51,97.88c-2,.59-5,3.21-5,3.21s-1.61-1-7.26-5.41-9.64-4.41-9.64-4.41a1.32,1.32,0,0,0-2.44-.47c-1.24,1.49-5.41,9.63-5.41,9.63-28.38,13.1-37.48,12.44-40.87,12.14s-6.66.6-6.66,2.09c0,0,.63.74.28,1.23-1.61,2-.64,7.51-.64,7.51-1.31,0-2.62.83-3.05,3.56-.51,2.18-.91,4.32-1.22,6.4-3.1,21.14,3.44,37,3.44,37l-.54.71c-1.34,4.38,2.5,12.18,2.5,12.18a4.36,4.36,0,0,0,0,2.55,30.48,30.48,0,0,0,2.11,3.58c.62,1,1.14,1.71,1.14,1.71l.32-.22c9.9-6.76,24-.47,32,3.75s48.72,6.17,71.28,2.8,48.78-1.27,48.78-1.27,16.71-5.89,20-8.15a4.51,4.51,0,0,0,.59-.47c2.71-2.54,2.5-7.86,2.5-7.86s4.76-1.13,5.95-2.5c2.68-2.73,2.27-6.82,2.16-7.6a1.11,1.11,0,0,0,0-.13c4-9.78-3.58-16.24-11.9-19.69a56.78,56.78,0,0,0-15.47-3.69l-.44,0"/><path class="cls-3" d="M84.51,115.89s22.27,8.52,49.76-7.54c7.74-4.2,12.6-6,16.29-5.61a9.74,9.74,0,0,1,6.28,3.5"/><path class="cls-3" d="M141.49,120.87c-6.12,5.68-11.38,11.07-11.69,13.89-.48,4.35,2.5,12.33,11.66,9.59s28.17-26.2,28.17-26.2"/><path class="cls-3" d="M161.51,97.88s-.51,3.23-4.67,8.36a49.82,49.82,0,0,1-5.27,5.5c-3.17,2.88-6.74,6-10,9.11l0,0"/><polyline class="cls-4" points="169.63 118.15 170.98 116.19 172.34 114.24"/><path class="cls-3" d="M80,133.42s1.13,8.79,26.36,11.68a157.45,157.45,0,0,0,17,.91c14.64,0,19.89,5.76,24.1,15.88A92.43,92.43,0,0,0,155,176.73l.16.24"/><path class="cls-5" d="M83,170.37s5.17,5.43,28.55,5.08c14.15-.21,28,.16,43.39,1.28,10,.73,20.69,1.78,32.47,3.19,29.67,3.55,56.09-.91,84.38-10.34l.4-.13"/><line class="cls-4" x1="124.8" y1="185.27" x2="165.4" y2="183.26"/><path class="cls-3" d="M83.87,123.4l.64,2.5s4.33-5.59,17.85-3.69,18.63,3.33,26.37-2.5c7.44-5.61,20.82-16.17,21.83-17l.06,0"/><path class="cls-3" d="M106.13,145.11h.25c1.25-.09,7.19-.93,16.75-9,10.49-8.85,17.91-14.86,18.36-15.23h0l0,0"/><path class="cls-6" d="M176.73,121.21l-4.38,4.3a2.57,2.57,0,0,0,1.82,4.56,2.51,2.51,0,0,0,1.46-.59h0l.05,0,.18-.18,4.94-4.9.45-.44-3.83-3.38Z"/><path class="cls-6" d="M188.21,129.37l-3.66,4.68a2.54,2.54,0,0,0-.65,2.28,2.58,2.58,0,0,0,3,2,2.48,2.48,0,0,0,1.37-.78h0l0-.06.15-.2,4.1-5.3.54-.7-4.24-2.85Z"/><path class="cls-6" d="M199.16,135.4l-2.47,4.75a2.57,2.57,0,0,0,3.09,3.82,2.52,2.52,0,0,0,1.22-1h0l0-.07a.94.94,0,0,0,.12-.22l2.66-5.18.67-1.31-4.66-2.09Z"/><path class="cls-6" d="M211.22,140.17l-1.45,4.74a2.58,2.58,0,1,0,4.76,2h0l0-.07c0-.08.05-.16.08-.24l1.49-5,.6-2-5-1.2Z"/><path class="cls-6" d="M224.4,143.48l-.94,4.76a2.58,2.58,0,1,0,4.94,1.49h0v-.08a1.84,1.84,0,0,0,.05-.25l1-5,.41-2.14-5.06-.69Z"/><path class="cls-6" d="M238.91,145.63l-.59,5.4a2.58,2.58,0,1,0,5.05,1.06h0V152a1,1,0,0,0,0-.25L244,146l.16-1.53-5.1-.25Z"/><path class="cls-7" d="M263.72,179.68h0c-.25.08-34.78,10.65-61.1,8.66-12.88-1-24.94-3.15-37.22-5.08-12.91-2-26.05-3.79-40.6-3.58v5.59s-1.25,2-39.8-2"/><path class="cls-7" d="M87.11,189.39a17.86,17.86,0,0,1,1.46,1.49c2.43,2.73,6.39,8.54-.21,11.79C79.54,207,56.6,220.79,46.6,227.49c-3.06,2-5.53,16.24,8.59,12.12s45.64-17.18,60.7-13.88,10.47,15.64,20.94,15.64,6.14-15.88,42.84-15.88,26.93,15.88,39.75,15.88,9.88-20.94,35.41-14.23,42.24,14,53.06,12.82c5.3-.7,5.3-7,3.77-8.19s-24-16.63-43.77-24.16c-4.7-2.35-2.23-7.18.35-9.41s6.12-6.12-2.58-6.12c-3.57,0-4.54-2.09-4.44-4.54.14-3.49,2.42-7.72,2.5-7.86"/><path class="cls-7" d="M203.66,206.9c0-5.06,4.35-6.47,12-6.47H251.3c4.83,0,5.89,3.77-2.11,7.89s-15.78,9.29-19.83,9.29H216.72s-7.28-6.25-10.71-7.09C203.5,209.9,203.66,206.9,203.66,206.9Z"/><path class="cls-7" d="M107.65,206.9c0-5.06,3.77-7.74,11.42-7.74s21.21.42,26,.42,12.09,6.18,8.08,8.74c-7.58,4.84-15.77,9.29-19.82,9.29H120.71s-7.28-6.25-10.7-7.09C107.5,209.9,107.65,206.9,107.65,206.9Z"/><path class="cls-7" d="M178.39,201.43c3.85,0,6,7.15,6.33,9.44s-3,3.36-6.33,3.36-6.56-.36-5.85-3.18S174.88,201.43,178.39,201.43Z"/><circle class="cls-1" cx="56.82" cy="230.77" r="3.82"/><path d="M138.54,269.42a38.65,38.65,0,1,1,38.65-38.65A38.7,38.7,0,0,1,138.54,269.42Zm.6-29.24-3.65,15.41.5,0a23.68,23.68,0,0,0,2.53.13,25.11,25.11,0,0,0,11.76-2.93l.44-.24-9.12-13ZM117.33,244l.28.41a24.86,24.86,0,0,0,11.17,9.35l.46.2,4.33-15.26-2-1.56Zm28.91-7.79,9.67,12.54.35-.36a24.89,24.89,0,0,0,6.82-12.88l.1-.49L147.35,234ZM114.75,223.1a24.86,24.86,0,0,0-.23,14.57l.13.48,14.59-6.24,0-2.51-14.31-6.78Zm31.83,2.84,1,2.29,15.82.37,0-.5a25,25,0,0,0-5.71-13.4l-.32-.38Zm-17.05-18.49a24.94,24.94,0,0,0-11.47,9l-.28.41,14,7.41,1.94-1.6L130,207.27Zm8.07-1.66,2.25,15.7,2.43.62,10.25-12.06-.42-.28a25,25,0,0,0-13.59-4Z"/><path d="M138.54,192.56a38.21,38.21,0,1,1-38.21,38.21,38.25,38.25,0,0,1,38.21-38.21m3.9,30.05.35-.42,9.75-11.48.65-.76-.84-.55a25.43,25.43,0,0,0-13.83-4.06h-.43l-1,0,.14,1,2.13,14.92.08.58.57.15,1.89.48.53.14m-10.59,2.17.46-.37,1.49-1.24.43-.35-.13-.53-3.56-14.64-.23-1-.94.36a25.45,25.45,0,0,0-11.67,9.15l-.57.81.88.47,13.32,7,.52.27m32.1,4.27-.11-1A25.33,25.33,0,0,0,158,214.42l-.64-.77-.67.73-10.25,11.05-.4.43.24.53.81,1.77.23.5h.55l15.05.36,1,0m-49.58,9.7.91-.39,13.86-5.93.54-.23v-.58l0-2v-.55l-.5-.23-13.61-6.45-.9-.43-.31,1a25.49,25.49,0,0,0-.24,14.83l.28,1m41.5,10.68.7-.71a25.4,25.4,0,0,0,6.94-13.1l.19-1-1-.07-15-1-.59,0-.26.53-.87,1.74-.24.49.34.43,9.19,11.93.62.79m-26.34,5.15.27-1,4.12-14.5.16-.56-.46-.36L132.09,237l-.43-.34-.49.23-13.58,6.52-.9.44.55.83a25.39,25.39,0,0,0,11.37,9.52l.92.39m9,1.63a25.63,25.63,0,0,0,12-3l.88-.47-.57-.81-8.68-12.33-.33-.48-.58.13-1.89.43-.54.12-.13.53L135.18,255l-.24,1,1,.1a24.63,24.63,0,0,0,2.58.13m0-64.53a39.09,39.09,0,1,0,39.09,39.09,39.09,39.09,0,0,0-39.09-39.09Zm3.59,29.94-1.89-.49-2.13-14.91h.41a24.65,24.65,0,0,1,13.35,3.93l-9.74,11.48Zm-10.39,2.11-13.32-7a24.64,24.64,0,0,1,11.27-8.83l3.55,14.63-1.5,1.24ZM163,228.15l-15.05-.36L147.1,226,157.35,215A24.57,24.57,0,0,1,163,228.15Zm-48,9.4a24.61,24.61,0,0,1,.23-14.32l13.6,6.45,0,1.95-13.86,5.92Zm41,10.55-9.2-11.92.87-1.74,15,1A24.59,24.59,0,0,1,156,248.1Zm-27,5.28a24.66,24.66,0,0,1-11-9.19l13.58-6.51,1.52,1.2L129,253.38Zm9.57,2a23.07,23.07,0,0,1-2.49-.13l3.48-14.65,1.9-.42,8.67,12.32a24.69,24.69,0,0,1-11.56,2.88Z"/><circle class="cls-1" cx="138.54" cy="230.77" r="3.82"/><path d="M219.25,269.42a38.65,38.65,0,1,1,38.65-38.65A38.7,38.7,0,0,1,219.25,269.42Zm.6-29.24-3.66,15.41.5,0a24,24,0,0,0,2.54.13A25.14,25.14,0,0,0,231,252.84l.44-.24-9.13-13ZM198,244l.27.41a24.94,24.94,0,0,0,11.18,9.35l.46.2,4.33-15.26-2-1.56Zm28.9-7.79,9.67,12.54.36-.36a25,25,0,0,0,6.82-12.88l.09-.49L228.06,234ZM195.45,223.1a25,25,0,0,0-.23,14.57l.14.48,14.58-6.24,0-2.51-14.31-6.78Zm31.83,2.84,1.05,2.29,15.83.37,0-.5a24.91,24.91,0,0,0-5.72-13.4l-.32-.38Zm-17-18.49a24.89,24.89,0,0,0-11.47,9l-.29.41,14,7.41,1.93-1.6-3.74-15.39Zm8.07-1.66,2.24,15.7,2.44.62,10.25-12.06-.42-.28a25,25,0,0,0-13.59-4Z"/><path d="M219.25,192.56A38.21,38.21,0,1,1,181,230.77a38.25,38.25,0,0,1,38.21-38.21m3.89,30.05.36-.42,9.75-11.48.65-.76-.84-.55a25.45,25.45,0,0,0-13.83-4.06h-.43l-1,0,.14,1,2.14,14.92.08.58.57.15,1.88.48.53.14m-10.58,2.17.45-.37,1.5-1.24.42-.35-.13-.53-3.55-14.64-.24-1-.93.36a25.45,25.45,0,0,0-11.67,9.15l-.57.81.88.47,13.32,7,.52.27m32.09,4.27-.11-1a25.4,25.4,0,0,0-5.81-13.64l-.64-.77-.68.73-10.25,11.05-.4.43.25.53.81,1.77.23.5h.55l15.05.36,1,0m-49.58,9.7.92-.39,13.86-5.93.54-.23v-.58l0-2v-.55l-.49-.23-13.61-6.45-.91-.43-.3,1a25.32,25.32,0,0,0-.24,14.83l.27,1m41.5,10.68.71-.71a25.4,25.4,0,0,0,6.94-13.1l.19-1-1-.07-15-1-.58,0-.26.53-.87,1.74-.24.49.33.43,9.2,11.93.61.79m-26.34,5.15.28-1,4.11-14.5.16-.56-.46-.36L212.8,237l-.43-.34-.5.23L198.3,243.4l-.9.44.54.83a25.42,25.42,0,0,0,11.38,9.52l.91.39m9,1.63a25.66,25.66,0,0,0,12-3l.88-.47-.58-.81-8.67-12.33-.34-.48-.57.13-1.9.43-.53.12-.13.53L215.88,255l-.23,1,1,.1a24.63,24.63,0,0,0,2.58.13m0-64.53a39.09,39.09,0,1,0,39.09,39.09,39.09,39.09,0,0,0-39.09-39.09Zm3.58,29.94-1.88-.49-2.14-14.91h.42a24.68,24.68,0,0,1,13.35,3.93l-9.75,11.48Zm-10.38,2.11-13.32-7a24.59,24.59,0,0,1,11.27-8.83L214,222.49l-1.5,1.24Zm31.22,4.42-15-.36-.81-1.76L238.06,215a24.65,24.65,0,0,1,5.61,13.17Zm-48,9.4a24.7,24.7,0,0,1,.23-14.32l13.61,6.45,0,1.95-13.86,5.92Zm41,10.55-9.2-11.92.86-1.74,15,1a24.66,24.66,0,0,1-6.7,12.65Zm-27,5.28a24.61,24.61,0,0,1-11-9.19l13.57-6.51,1.53,1.2-4.12,14.5Zm9.57,2a23.07,23.07,0,0,1-2.49-.13l3.47-14.65,1.9-.42,8.67,12.32a24.65,24.65,0,0,1-11.55,2.88Z"/><circle class="cls-1" cx="219.25" cy="230.77" r="3.82"/><path d="M301.16,269.42a38.65,38.65,0,1,1,38.65-38.65A38.7,38.7,0,0,1,301.16,269.42Zm.6-29.24-3.66,15.41.5,0a23.87,23.87,0,0,0,2.54.13,25.14,25.14,0,0,0,11.76-2.93l.44-.24-9.13-13ZM280,244l.27.41a24.89,24.89,0,0,0,11.18,9.35l.45.2,4.34-15.26-2-1.56Zm28.9-7.79,9.67,12.54.35-.36a25,25,0,0,0,6.83-12.88l.09-.49L310,234ZM277.36,223.1a25,25,0,0,0-.23,14.57l.14.48,14.58-6.24,0-2.51-14.3-6.78Zm31.83,2.84,1.05,2.29,15.83.37-.06-.5a24.89,24.89,0,0,0-5.71-13.4l-.32-.38Zm-17-18.49a24.89,24.89,0,0,0-11.47,9l-.29.41,14,7.41,1.94-1.6-3.74-15.39Zm8.07-1.66,2.24,15.7,2.44.62,10.25-12.06-.42-.28a25,25,0,0,0-13.59-4Z"/><path d="M301.16,192.56A38.21,38.21,0,1,1,263,230.77a38.25,38.25,0,0,1,38.21-38.21m3.89,30.05.36-.42,9.75-11.48.65-.76-.84-.55a25.48,25.48,0,0,0-13.83-4.06h-.43l-1,0,.14,1L302,221.26l.08.58.57.15,1.88.48.53.14m-10.58,2.17.45-.37,1.5-1.24.42-.35-.13-.53-3.55-14.64-.24-1L292,207a25.4,25.4,0,0,0-11.67,9.15l-.57.81.88.47,13.32,7,.52.27m32.09,4.27-.11-1a25.4,25.4,0,0,0-5.81-13.64l-.64-.77-.68.73-10.25,11.05-.4.43.25.53.81,1.77.22.5h.55l15.06.36,1,0M277,238.75l.92-.39,13.85-5.93.54-.23v-.58l0-2v-.55l-.5-.23-13.6-6.45-.91-.43-.31,1a25.41,25.41,0,0,0-.23,14.83l.27,1m41.5,10.68.71-.71a25.55,25.55,0,0,0,6.94-13.1l.19-1-1-.07-15-1-.59,0-.26.53-.86,1.74-.25.49.34.43,9.2,11.93.61.79m-26.34,5.15.27-1,4.12-14.5.16-.56-.46-.36L294.71,237l-.43-.34-.5.23-13.57,6.52-.91.44.55.83a25.44,25.44,0,0,0,11.37,9.52l.92.39m9,1.63a25.59,25.59,0,0,0,12-3l.88-.47-.57-.81-8.67-12.33-.34-.48-.57.13-1.9.43-.54.12-.12.53L297.79,255l-.23,1,1,.1a25,25,0,0,0,2.59.13m0-64.53a39.09,39.09,0,1,0,39.09,39.09,39.09,39.09,0,0,0-39.09-39.09Zm3.58,29.94-1.89-.49-2.13-14.91h.42a24.7,24.7,0,0,1,13.35,3.93l-9.75,11.48Zm-10.38,2.11-13.32-7a24.61,24.61,0,0,1,11.26-8.83l3.56,14.63-1.5,1.24Zm31.22,4.42-15.06-.36-.81-1.76L320,215a24.66,24.66,0,0,1,5.62,13.17Zm-48,9.4a24.7,24.7,0,0,1,.23-14.32l13.61,6.45,0,1.95-13.86,5.92Zm41,10.55-9.19-11.92.86-1.74,15,1a24.52,24.52,0,0,1-6.7,12.65Zm-27,5.28a24.61,24.61,0,0,1-11-9.19l13.57-6.51,1.53,1.2-4.12,14.5Zm9.57,2a23.39,23.39,0,0,1-2.5-.13l3.48-14.65,1.9-.42,8.67,12.32a24.65,24.65,0,0,1-11.55,2.88Z"/><circle class="cls-1" cx="301.16" cy="230.77" r="3.82"/></g></svg>