<svg xmlns="http://www.w3.org/2000/svg" viewBox="0 0 357.98 333.74"><defs><style>.cls-1{fill:#fff;}.cls-2,.cls-3,.cls-4,.cls-5,.cls-6,.cls-7,.cls-8{fill:none;}.cls-2,.cls-4,.cls-6,.cls-7{stroke:#000;}.cls-2,.cls-3,.cls-4,.cls-5,.cls-6,.cls-7{stroke-miterlimit:10;}.cls-2{stroke-width:0.76px;}.cls-3,.cls-5{stroke:#fff;}.cls-3,.cls-4{stroke-width:0.25px;}.cls-5{stroke-width:0.51px;}.cls-6{stroke-width:0.31px;}.cls-8{stroke:#231f20;stroke-linecap:round;stroke-linejoin:round;stroke-width:0.5px;}</style></defs><title>AnabolixIcon</title><g id="SPPED_BOOT_-_3_WHEELS" data-name="SPPED BOOT - 3 WHEELS"><path d="M62.8,259.44a44,44,0,1,1,44-44A44.05,44.05,0,0,1,62.8,259.44Zm.68-33.29-4.16,17.54.57.06a27.68,27.68,0,0,0,2.89.15,28.68,28.68,0,0,0,13.38-3.34l.5-.27L66.27,225.53Zm-24.83,4.37L39,231a28.51,28.51,0,0,0,12.73,10.65l.52.22,4.93-17.37-2.24-1.78Zm32.9-8.87,11,14.27.41-.4a28.43,28.43,0,0,0,7.76-14.66l.11-.56-18-1.21ZM35.71,206.71a28.3,28.3,0,0,0-.26,16.58l.15.55,16.6-7.1,0-2.86-16.28-7.72ZM72,209.94l1.19,2.6,18,.43-.06-.57a28.47,28.47,0,0,0-6.51-15.26l-.36-.43ZM52.54,188.89a28.42,28.42,0,0,0-13.06,10.24l-.32.46,16,8.44,2.2-1.83-4.25-17.51ZM61.73,187l2.55,17.87,2.77.71,11.67-13.73-.47-.31A28.45,28.45,0,0,0,62.77,187Z"/><path d="M62.8,171.94a43.5,43.5,0,1,1-43.5,43.5,43.55,43.55,0,0,1,43.5-43.5m4.43,34.2.41-.47,11.1-13.07.73-.87-1-.61a29,29,0,0,0-15.74-4.64h-.5l-1.13,0,.16,1.12,2.43,17,.1.66.64.17,2.15.55.6.15m-12.05,2.48.52-.42,1.7-1.41.48-.4-.14-.61-4.05-16.66L53.42,188l-1.06.42a28.85,28.85,0,0,0-13.29,10.41l-.65.93,1,.53,15.16,8,.59.31m36.53,4.86-.12-1.13A28.82,28.82,0,0,0,85,196.82l-.72-.87-.78.83L71.81,209.36l-.46.49.28.6.92,2,.26.57h.63l17.13.4,1.14,0m-56.43,11,1-.45,15.77-6.74.62-.26v-.67l0-2.21v-.63l-.56-.27L36.61,206l-1-.48-.35,1.08A29,29,0,0,0,35,223.43l.31,1.09m47.24,12.16.8-.81A28.88,28.88,0,0,0,91.22,221l.22-1.12-1.13-.07-17.12-1.16-.66,0-.3.6-1,2-.28.56.38.5,10.47,13.57.7.9m-30,5.86.31-1.09L57.53,225l.18-.64-.52-.42-1.73-1.37-.49-.39-.57.27L39,229.82l-1,.49.62,1a29,29,0,0,0,13,10.83l1,.44m10.25,1.86A29.21,29.21,0,0,0,76.4,241l1-.53-.65-.93-9.88-14-.38-.55-.65.15-2.16.48-.61.14-.15.6L59,243l-.26,1.11,1.13.12a29.14,29.14,0,0,0,3,.15m0-73.46a44.5,44.5,0,1,0,44.49,44.5,44.5,44.5,0,0,0-44.49-44.5ZM66.88,205l-2.15-.55-2.43-17h.48A28,28,0,0,1,78,192L66.88,205Zm-11.82,2.41-15.17-8a28.06,28.06,0,0,1,12.83-10l4,16.66-1.7,1.41Zm35.54,5-17.14-.41-.92-2,11.67-12.58a28.12,28.12,0,0,1,6.39,15ZM35.93,223.15a27.92,27.92,0,0,1,.26-16.29l15.49,7.34,0,2.21-15.77,6.74Zm46.68,12L72.14,221.59l1-2,17.11,1.16a28,28,0,0,1-7.63,14.4Zm-30.73,6a28.14,28.14,0,0,1-12.5-10.46l15.45-7.42,1.74,1.37-4.69,16.51Zm10.9,2.22a26.87,26.87,0,0,1-2.84-.15l4-16.68,2.17-.48,9.87,14a28.1,28.1,0,0,1-13.15,3.28Z"/><path d="M179,259.44a44,44,0,1,1,44-44A44.05,44.05,0,0,1,179,259.44Zm.68-33.29-4.16,17.54.57.06a27.83,27.83,0,0,0,2.89.15,28.75,28.75,0,0,0,13.39-3.34l.5-.27-10.4-14.76Zm-24.83,4.37.32.47a28.43,28.43,0,0,0,12.72,10.65l.52.22,4.93-17.37-2.24-1.78Zm32.91-8.87,11,14.27.4-.4a28.36,28.36,0,0,0,7.76-14.66l.11-.56-18-1.21ZM151.9,206.71a28.47,28.47,0,0,0-.26,16.58l.15.55,16.61-7.1,0-2.86-16.29-7.72Zm36.24,3.23,1.19,2.6,18,.43-.06-.57a28.47,28.47,0,0,0-6.51-15.26l-.36-.43Zm-19.41-21.05a28.35,28.35,0,0,0-13,10.24l-.33.46,16,8.44,2.21-1.83-4.26-17.51Zm9.19-1.89,2.55,17.87,2.78.71,11.67-13.73-.48-.31A28.44,28.44,0,0,0,179,187Z"/><path d="M179,171.94a43.5,43.5,0,1,1-43.5,43.5,43.56,43.56,0,0,1,43.5-43.5m4.43,34.2.41-.47,11.1-13.07.74-.87-1-.61A29,29,0,0,0,179,186.48h-.49l-1.14,0,.16,1.12,2.43,17,.1.66.64.17,2.15.55.6.15m-12,2.48.52-.42,1.7-1.41.49-.4-.15-.61-4.05-16.66-.27-1.11-1.06.42a28.83,28.83,0,0,0-13.28,10.41l-.65.93,1,.53,15.16,8,.59.31m36.54,4.86-.13-1.13a28.88,28.88,0,0,0-6.61-15.53l-.73-.87-.77.83L188,209.36l-.46.49.28.6.92,2,.26.57h.63l17.14.4,1.14,0m-56.44,11,1-.45,15.78-6.74.61-.26v-.67l0-2.21v-.63l-.56-.27L152.81,206l-1-.48-.35,1.08a28.9,28.9,0,0,0-.27,16.88l.31,1.09m47.24,12.16.8-.81a28.8,28.8,0,0,0,7.9-14.91l.22-1.12-1.13-.07-17.12-1.16-.66,0-.3.6-1,2-.28.56.38.5L198,235.78l.7.9m-30,5.86.31-1.09,4.68-16.5.19-.64-.53-.42-1.73-1.37-.49-.39-.57.27-15.45,7.42-1,.49.63,1a28.92,28.92,0,0,0,12.94,10.83l1,.44M179,244.4a29.21,29.21,0,0,0,13.62-3.4l1-.53-.65-.93-9.87-14-.39-.55-.65.15-2.16.48-.61.14-.15.6-4,16.68-.27,1.11,1.14.12a28.8,28.8,0,0,0,2.94.15m0-73.46a44.5,44.5,0,1,0,44.5,44.5,44.5,44.5,0,0,0-44.5-44.5ZM183.07,205l-2.15-.55-2.43-17H179a28,28,0,0,1,15.2,4.48L183.07,205Zm-11.82,2.41-15.17-8a28.06,28.06,0,0,1,12.83-10L173,206l-1.71,1.41Zm35.54,5-17.14-.41-.92-2,11.67-12.58a28.12,28.12,0,0,1,6.39,15Zm-54.67,10.69a28,28,0,0,1,.26-16.29l15.49,7.34,0,2.21-15.77,6.74Zm46.68,12-10.47-13.58,1-2,17.11,1.16a28,28,0,0,1-7.63,14.4Zm-30.73,6a28.14,28.14,0,0,1-12.5-10.46L171,223.3l1.73,1.37-4.69,16.51ZM179,243.4a27,27,0,0,1-2.84-.15l4-16.68,2.16-.48,9.87,14A28.1,28.1,0,0,1,179,243.4Z"/><path d="M295.18,259.44a44,44,0,1,1,44-44A44.05,44.05,0,0,1,295.18,259.44Zm.68-33.29-4.16,17.54.57.06a27.83,27.83,0,0,0,2.89.15,28.75,28.75,0,0,0,13.39-3.34l.5-.27-10.39-14.76ZM271,230.52l.32.47a28.43,28.43,0,0,0,12.72,10.65l.52.22,4.94-17.37-2.25-1.78Zm32.91-8.87,11,14.27.4-.4a28.36,28.36,0,0,0,7.76-14.66l.11-.56-18-1.21Zm-35.85-14.94a28.47,28.47,0,0,0-.26,16.58l.16.55,16.6-7.1,0-2.86-16.29-7.72Zm36.24,3.23,1.19,2.6,18,.43-.06-.57A28.47,28.47,0,0,0,317,197.14l-.36-.43Zm-19.41-21.05a28.35,28.35,0,0,0-13.05,10.24l-.33.46,16,8.44,2.21-1.83-4.26-17.51Zm9.19-1.89,2.56,17.87,2.77.71,11.67-13.73-.48-.31A28.44,28.44,0,0,0,295.16,187Z"/><path d="M295.18,171.94a43.5,43.5,0,1,1-43.5,43.5,43.56,43.56,0,0,1,43.5-43.5m4.44,34.2.4-.47,11.1-13.07.74-.87-1-.61a28.94,28.94,0,0,0-15.74-4.64h-.49l-1.14,0,.16,1.12,2.43,17,.1.66.65.17L299,206l.61.15m-12.05,2.48.51-.42,1.71-1.41.48-.4-.15-.61-4.05-16.66-.26-1.11-1.07.42a28.83,28.83,0,0,0-13.28,10.41l-.65.93,1,.53,15.16,8,.6.31m36.53,4.86-.12-1.13a29,29,0,0,0-6.62-15.53l-.73-.87-.77.83-11.67,12.58-.45.49.27.6.93,2,.26.57h.62l17.14.4,1.14,0m-56.44,11,1-.45,15.78-6.74.61-.26v-.67l0-2.21v-.63l-.56-.27L269,206l-1-.48-.35,1.08a28.9,28.9,0,0,0-.27,16.88l.31,1.09m47.24,12.16.8-.81A28.89,28.89,0,0,0,323.61,221l.21-1.12-1.13-.07-17.11-1.16-.67,0-.3.6-1,2-.28.56.38.5,10.47,13.57.7.9m-30,5.86.31-1.09,4.69-16.5.18-.64-.53-.42-1.73-1.37-.49-.39-.57.27-15.45,7.42-1,.49.63,1a29,29,0,0,0,12.94,10.83l1.05.44m10.24,1.86a29.15,29.15,0,0,0,13.62-3.4l1-.53-.65-.93-9.87-14-.39-.55-.65.15-2.16.48-.61.14-.15.6L291.35,243l-.27,1.11,1.14.12a28.8,28.8,0,0,0,2.94.15m0-73.46a44.5,44.5,0,1,0,44.5,44.5,44.5,44.5,0,0,0-44.5-44.5ZM299.26,205l-2.15-.55-2.43-17h.48a28,28,0,0,1,15.2,4.48L299.26,205Zm-11.82,2.41-15.16-8a28,28,0,0,1,12.82-10l4,16.66-1.71,1.41Zm35.54,5-17.14-.41-.92-2,11.67-12.58a28,28,0,0,1,6.39,15Zm-54.67,10.69a28.09,28.09,0,0,1,.26-16.29l15.49,7.34,0,2.21-15.77,6.74Zm46.69,12-10.48-13.58,1-2,17.11,1.16a28,28,0,0,1-7.62,14.4Zm-30.73,6a28,28,0,0,1-12.5-10.46l15.45-7.42,1.73,1.37-4.68,16.51Zm10.89,2.22a27,27,0,0,1-2.84-.15l4-16.68,2.16-.48,9.87,14a28.07,28.07,0,0,1-13.15,3.28Z"/><path d="M302.17,211.32c5.74,5.47-.62,17.83-10.32,12.88s-40.06-21.79-45-21.79-29,.09-34.41.09-6.8,1-9.09,3.44-16.5,17-18.27,17H174.67c-4.59,0-11.2-8.37-15.09-12.26s-7.41-8.64-13.06-8.64c-3.52,0-39.35-.21-39.35-.21s-29.06,14.24-34.08,16.82-6.54,3.43-10.62,4.42c-5.36,1.29-8-3.32-8.59-4.94-1.39-4,3.43-8.64,4.79-10.11l32.58-33.27c9.9-7.12,24.23-.74,32.26,3.53s48.73,6.17,71.29,2.8,48.77-1.27,48.77-1.27,2.65-.93,6.05-2.2c6.83-.08,11.79-.19,15.14,2.46S296.44,205.85,302.17,211.32Zm-45.72-18.88c.57-1.59-.4-3.12-2.69-3.65-4.12-.82-20.35-3.29-20.35-3.29s-13.71-2.71-16.88-2.67-9.48,5.55-9.71,7.29-.53,4.61,3.82,4.61h39.41C254.58,194.73,255.88,194,256.45,192.44Zm-108.36,0c.57-1.59-.39-3.12-2.68-3.65-4.12-.82-20.36-3.29-20.36-3.29s-13.7-2.71-16.88-2.67-9.47,5.55-9.7,7.29-.53,4.61,3.82,4.61H141.7C146.23,194.73,147.53,194,148.09,192.44Z"/><path d="M262.91,133.42c8.32,3.46,15.92,9.92,11.9,19.7a.69.69,0,0,0,0,.13c-28.29,9.43-54.72,13.89-84.39,10.34-11.77-1.41-22.43-2.46-32.46-3.19a92,92,0,0,1-7.52-14.84c-4.21-10.12-9.46-15.88-24.09-15.88a155.1,155.1,0,0,1-17-.92c1.21-.07,7.16-.88,16.78-9,10.66-9,18.14-15.06,18.37-15.24-6.13,5.68-11.4,11.08-11.71,13.9-.47,4.35,2.5,12.33,11.66,9.59s28.17-26.2,28.17-26.2l1.36-2s2,2,5.74,5l-4.38,4.29a2.62,2.62,0,0,0-.94,2.18,2.58,2.58,0,0,0,2.76,2.39,2.6,2.6,0,0,0,1.47-.59h0l.06-.06.18-.18,4.94-4.9c2.16,1.58,4.63,3.29,7.4,5l-3.67,4.68a2.58,2.58,0,0,0,2.4,4.29,2.68,2.68,0,0,0,1.38-.78h0l.05-.06a1,1,0,0,0,.15-.2l4.11-5.31c2.05,1.17,4.23,2.31,6.52,3.41l-2.47,4.75a2.55,2.55,0,0,0-.25,2.36,2.58,2.58,0,0,0,3.34,1.46,2.52,2.52,0,0,0,1.22-1h0l0-.07.12-.22,2.66-5.18c2.42,1,4.9,1.88,7.4,2.66l-1.45,4.75a2.58,2.58,0,0,0,3.73,3.2,2.53,2.53,0,0,0,1-1.21h0l0-.07a2.25,2.25,0,0,0,.08-.24l1.5-5c2.82.75,5.61,1.38,8.26,1.9l-.93,4.76a2.58,2.58,0,1,0,4.93,1.49h0v-.08a1.83,1.83,0,0,0,.06-.25l.95-5c3.69.6,7,1,9.48,1.25l-.58,5.4a2.58,2.58,0,1,0,5,1.06h0v-.08l0-.25.58-5.72.45,0A57.07,57.07,0,0,1,262.91,133.42Z"/><path d="M158,160.4c10,.73,20.69,1.78,32.46,3.19,29.67,3.55,56.1-.91,84.39-10.34.1.78.51,4.86-2.17,7.6-1.19,1.37-6,2.5-6,2.5S232,174,205.61,172c-12.87-1-24.94-3.15-37.21-5.08-12.91-2-26.06-3.79-40.6-3.58v5.59s-1.26,2.05-39.81-2c0,0-3.83-7.8-2.5-12.18L86,154s5.17,5.43,28.55,5.08C128.73,158.91,142.62,159.28,158,160.4Z"/><path d="M266.71,163.35s.24,6.07-3.09,8.33c-2,1.36-8.86,4-14,5.95-3.4,1.27-6.05,2.2-6.05,2.2s-26.21-2.11-48.77,1.27-63.26,1.48-71.29-2.8-22.36-10.65-32.26-3.53A55.88,55.88,0,0,1,88,169.48a4.46,4.46,0,0,1,0-2.55c38.55,4.06,39.81,2,39.81,2l40.6-2h0c12.27,1.93,24.34,4.11,37.21,5.08C232,174,266.71,163.35,266.71,163.35Z"/><path class="cls-1" d="M247.15,128.17l-.16,1.54c-.78,0-2.58-.16-5.09-.41l.15-1.38Z"/><path class="cls-1" d="M247,129.71l-.58,5.72,0,.25v.08h0a2.55,2.55,0,0,1-.77,1.38,2.58,2.58,0,0,1-4.27-2.44l.58-5.4C244.41,129.55,246.21,129.67,247,129.71Z"/><path class="cls-1" d="M232.83,125.91l-.41,2.14c-1.6-.26-3.29-.56-5-.9l.38-1.93Z"/><path class="cls-1" d="M232.42,128.05l-.95,5a1.83,1.83,0,0,1-.06.25v.08h0a2.58,2.58,0,1,1-4.93-1.49l.93-4.76C229.13,127.49,230.82,127.79,232.42,128.05Z"/><path class="cls-1" d="M219.72,123.27l-.59,2q-2.44-.65-4.91-1.42l.54-1.77Z"/><path class="cls-1" d="M219.13,125.25l-1.5,5a2.25,2.25,0,0,1-.08.24l0,.07h0a2.53,2.53,0,0,1-1,1.21,2.58,2.58,0,0,1-3.73-3.2l1.45-4.75Q216.68,124.61,219.13,125.25Z"/><path class="cls-1" d="M207.49,119.86l-.67,1.31q-.91-.37-1.8-.78c-1-.43-1.93-.87-2.87-1.32l.68-1.3Z"/><path class="cls-1" d="M206.82,121.17l-2.66,5.18-.12.22,0,.07h0a2.52,2.52,0,0,1-1.22,1,2.58,2.58,0,0,1-3.34-1.46,2.55,2.55,0,0,1,.25-2.36l2.47-4.75c.94.45,1.9.89,2.87,1.32Q205.91,120.79,206.82,121.17Z"/><path class="cls-1" d="M196.17,115l-.54.7c-1.55-.87-3-1.75-4.42-2.62l.71-.92Z"/><path class="cls-1" d="M195.63,115.66,191.52,121a1,1,0,0,1-.15.2l-.05.06h0a2.68,2.68,0,0,1-1.38.78,2.58,2.58,0,0,1-2.4-4.29l3.67-4.68C192.61,113.91,194.08,114.79,195.63,115.66Z"/><path class="cls-1" d="M184.25,107.57l-.44.45c-1.53-1.12-2.89-2.18-4.09-3.14l.7-.68Z"/><path class="cls-1" d="M183.81,108l-4.94,4.9-.18.18-.06.06h0a2.6,2.6,0,0,1-1.47.59,2.58,2.58,0,0,1-2.76-2.39,2.62,2.62,0,0,1,.94-2.18l4.38-4.29C180.92,105.84,182.28,106.9,183.81,108Z"/><path class="cls-1" d="M159.83,89.9c4.16-5.12,4.67-8.35,4.67-8.35l12.67,12.61s-.53,2.8-1.84,3.75l-1.35,2-1.36,2s-19,23.45-28.17,26.2-12.13-5.24-11.66-9.59c.31-2.82,5.58-8.22,11.71-13.9h0c3.32-3.07,6.88-6.23,10.06-9.11A50.57,50.57,0,0,0,159.83,89.9Z"/><path d="M153.55,86.41C149.86,86,145,87.82,137.26,92c-27.48,16.06-49.76,7.54-49.76,7.54.36-.49-.28-1.24-.28-1.24,0-1.48,3.27-2.38,6.66-2.08s12.5,1,40.88-12.13c0,0,4.16-8.16,5.41-9.64a1.33,1.33,0,0,1,2.44.47s4,0,9.64,4.4,7.26,5.42,7.26,5.42,3-2.62,5-3.21c0,0-.51,3.23-4.67,8.35A9.73,9.73,0,0,0,153.55,86.41Z"/><path class="cls-1" d="M109.35,128.76a155.1,155.1,0,0,0,17,.92c14.63,0,19.88,5.76,24.09,15.88A92,92,0,0,0,158,160.4c-15.36-1.12-29.25-1.49-43.4-1.28C91.2,159.47,86,154,86,154s-6.54-15.86-3.44-37l.43.06S84.14,125.87,109.35,128.76Z"/><path d="M159.83,89.9a50.57,50.57,0,0,1-5.26,5.51c-3.18,2.88-6.74,6-10.06,9.11h0c-.23.18-7.71,6.25-18.37,15.24-9.62,8.11-15.57,8.92-16.78,9C84.14,125.87,83,117.09,83,117.09l-.43-.06c.31-2.08.71-4.22,1.22-6.4.43-2.73,1.74-3.56,3-3.56l.64,2.5s4.34-5.6,17.86-3.69,18.63,3.33,26.36-2.5c7.44-5.61,20.82-16.17,21.83-17A9.73,9.73,0,0,1,159.83,89.9Z"/><path d="M137.26,92c7.74-4.2,12.6-6,16.29-5.61-1,.8-14.39,11.36-21.83,17-7.73,5.83-12.85,4.4-26.36,2.5s-17.86,3.69-17.86,3.69l-.64-2.5s-1-5.46.64-7.51C87.5,99.56,109.78,108.08,137.26,92Z"/><path class="cls-2" d="M179.72,104.88c-3.7-3-5.74-5-5.74-5"/><path class="cls-2" d="M191.21,113c-2.77-1.73-5.24-3.44-7.4-5"/><path class="cls-2" d="M202.15,119.07c-2.29-1.1-4.47-2.24-6.52-3.41"/><path class="cls-2" d="M214.22,123.83c-2.5-.78-5-1.67-7.4-2.66"/><path class="cls-2" d="M227.39,127.15c-2.65-.52-5.44-1.15-8.26-1.9"/><path class="cls-2" d="M241.9,129.3c-2.53-.25-5.79-.65-9.48-1.25"/><path class="cls-2" d="M175.33,97.91c1.31-1,1.84-3.75,1.84-3.75L164.5,81.55c-2,.59-5,3.21-5,3.21s-1.61-1-7.26-5.42-9.64-4.4-9.64-4.4a1.33,1.33,0,0,0-2.44-.47c-1.25,1.48-5.41,9.64-5.41,9.64C106.38,97.19,97.27,96.54,93.88,96.24s-6.66.6-6.66,2.08c0,0,.64.75.28,1.24-1.6,2-.64,7.51-.64,7.51-1.31,0-2.62.83-3,3.56-.51,2.18-.91,4.32-1.22,6.4C79.49,138.18,86,154,86,154l-.54.71c-1.33,4.38,2.5,12.18,2.5,12.18a4.46,4.46,0,0,0,0,2.55,55.88,55.88,0,0,0,3.26,5.29c9.9-7.12,24.23-.74,32.26,3.53s48.73,6.17,71.29,2.8,48.77-1.27,48.77-1.27,2.65-.93,6.05-2.2c5.14-1.91,12-4.59,14-5.95,3.33-2.26,3.09-8.33,3.09-8.33s4.76-1.13,6-2.5c2.68-2.74,2.27-6.82,2.17-7.6a.69.69,0,0,1,0-.13c4-9.78-3.58-16.24-11.9-19.7a57.07,57.07,0,0,0-15.47-3.68l-.45,0"/><path class="cls-3" d="M87.5,99.56s22.28,8.52,49.76-7.54c7.74-4.2,12.6-6,16.29-5.61a9.73,9.73,0,0,1,6.28,3.49h0"/><path class="cls-3" d="M144.5,104.53c-6.13,5.68-11.4,11.08-11.71,13.9-.47,4.35,2.5,12.33,11.66,9.59s28.17-26.2,28.17-26.2"/><path class="cls-3" d="M164.5,81.55s-.51,3.23-4.67,8.35a50.57,50.57,0,0,1-5.26,5.51c-3.18,2.88-6.74,6-10.06,9.11"/><polyline class="cls-4" points="172.62 101.82 173.98 99.86 175.33 97.91"/><path class="cls-3" d="M83,117.09s1.12,8.78,26.33,11.67a155.1,155.1,0,0,0,17,.92c14.63,0,19.88,5.76,24.09,15.88A92,92,0,0,0,158,160.4l.16.24"/><path class="cls-5" d="M86,154s5.17,5.43,28.55,5.08c14.15-.21,28,.16,43.4,1.28,10,.73,20.69,1.78,32.46,3.19,29.67,3.55,56.1-.91,84.39-10.34l.39-.13"/><path class="cls-4" d="M266.71,163.35S232,174,205.61,172c-12.87-1-24.94-3.15-37.21-5.08-12.91-2-26.06-3.79-40.6-3.58v5.59s-1.26,2.05-39.81-2"/><line class="cls-4" x1="127.8" y1="168.94" x2="168.4" y2="166.93"/><path class="cls-3" d="M86.86,107.07l.64,2.5s4.34-5.6,17.86-3.69,18.63,3.33,26.36-2.5c7.44-5.61,20.82-16.17,21.83-17l.06,0"/><path class="cls-3" d="M109.12,128.77a1,1,0,0,0,.23,0c1.21-.07,7.16-.88,16.78-9,10.66-9,18.14-15.06,18.37-15.24h0"/><path class="cls-6" d="M179.72,104.88l-4.38,4.29a2.62,2.62,0,0,0-.94,2.18,2.58,2.58,0,0,0,2.76,2.39,2.6,2.6,0,0,0,1.47-.59h0l.06-.06.18-.18,4.94-4.9.44-.45-3.83-3.37Z"/><path class="cls-6" d="M191.21,113l-3.67,4.68a2.58,2.58,0,0,0,2.4,4.29,2.68,2.68,0,0,0,1.38-.78h0l.05-.06a1,1,0,0,0,.15-.2l4.11-5.31.54-.7-4.25-2.84Z"/><path class="cls-6" d="M202.15,119.07l-2.47,4.75a2.55,2.55,0,0,0-.25,2.36,2.58,2.58,0,0,0,3.34,1.46,2.52,2.52,0,0,0,1.22-1h0l0-.07.12-.22,2.66-5.18.67-1.31-4.66-2.09Z"/><path class="cls-6" d="M214.22,123.83l-1.45,4.75a2.58,2.58,0,0,0,3.73,3.2,2.53,2.53,0,0,0,1-1.21h0l0-.07a2.25,2.25,0,0,0,.08-.24l1.5-5,.59-2-5-1.21Z"/><path class="cls-6" d="M227.39,127.15l-.93,4.76a2.58,2.58,0,1,0,4.93,1.49h0v-.08a1.83,1.83,0,0,0,.06-.25l.95-5,.41-2.14-5.06-.69Z"/><path class="cls-6" d="M241.9,129.3l-.58,5.4a2.58,2.58,0,1,0,5,1.06h0v-.08l0-.25.58-5.72.16-1.54-5.1-.25Z"/><path class="cls-7" d="M91.25,174.77,58.67,208c-1.36,1.47-6.18,6.08-4.79,10.11.56,1.62,3.23,6.23,8.59,4.94,4.08-1,5.59-1.83,10.62-4.42s34.08-16.82,34.08-16.82,35.83.21,39.35.21c5.65,0,9.18,4.76,13.06,8.64S170.08,223,174.67,223h10.41c1.77,0,16-14.55,18.27-17s3.7-3.44,9.09-3.44,29.47-.09,34.41-.09,35.29,16.85,45,21.79,16.06-7.41,10.32-12.88-34.06-28.59-37.41-31.23-8.31-2.54-15.14-2.46"/><path class="cls-8" d="M125.05,185.5s16.24,2.47,20.36,3.29c2.29.53,3.25,2.06,2.68,3.65s-1.86,2.29-6.39,2.29H102.29c-4.35,0-4.06-2.88-3.82-4.61s6.53-7.26,9.7-7.29S125.05,185.5,125.05,185.5Z"/><path class="cls-8" d="M233.41,185.5s16.23,2.47,20.35,3.29c2.29.53,3.26,2.06,2.69,3.65s-1.87,2.29-6.4,2.29H210.64c-4.35,0-4.06-2.88-3.82-4.61s6.53-7.26,9.71-7.29S233.41,185.5,233.41,185.5Z"/><circle class="cls-1" cx="62.8" cy="215.44" r="3.82"/><circle class="cls-1" cx="178.84" cy="215.44" r="3.82"/><circle class="cls-1" cx="294.88" cy="215.44" r="3.82"/></g></svg>