<svg id="Layer_1" data-name="Layer 1" xmlns="http://www.w3.org/2000/svg" viewBox="0 0 51.56 49.17"><defs><style>.cls-1{fill:#088ccc;}</style></defs><title>star</title><g id="star"><path id="Path_44" data-name="Path 44" class="cls-1" d="M27.63,2.64l6.56,15.52L51,19.6A1.34,1.34,0,0,1,52.19,21a1.3,1.3,0,0,1-.45.88L39,33l3.82,16.41a1.33,1.33,0,0,1-2,1.44l-14.43-8.7L12,50.81a1.33,1.33,0,0,1-2-1.44L13.83,33l-12.74-11a1.32,1.32,0,0,1,.75-2.32l16.79-1.44L25.19,2.64a1.32,1.32,0,0,1,1.73-.71,1.3,1.3,0,0,1,.71.71Z" transform="translate(-0.63 -1.83)"/></g></svg>