<?xml version="1.0" encoding="utf-8"?>
<!-- Generator: Adobe Illustrator 23.0.6, SVG Export Plug-In . SVG Version: 6.00 Build 0)  -->
<svg version="1.1" id="Layer_1" xmlns="http://www.w3.org/2000/svg" xmlns:xlink="http://www.w3.org/1999/xlink" x="0px" y="0px"
	 viewBox="0 0 52.01 49.48" style="enable-background:new 0 0 52.01 49.48;" xml:space="preserve">
<style type="text/css">
	.st0{fill:#088CCC;enable-background:new    ;}
</style>
<title>throwback</title>
<path id="Path_247" class="st0" d="M27.3,0C18.45-0.04,10.28,4.75,5.98,12.48l-6-6v16.9h16.9l-7.29-7.26
	c4.68-9.77,16.39-13.89,26.16-9.21s13.89,16.39,9.21,26.16S28.57,46.96,18.8,42.28c-4.66-2.23-8.25-6.21-9.99-11.08H3.38
	c3.57,13.19,17.15,20.99,30.34,17.42c13.19-3.57,20.99-17.15,17.42-30.34C48.23,7.51,38.46,0.02,27.3,0z M23.4,13v13.26l12.19,7.28
	l2.08-3.38l-10.4-6.24V13H23.4z"/>
</svg>
