<svg xmlns="http://www.w3.org/2000/svg" width="325.199" height="51" viewBox="0 0 325.199 51"><defs><style>.a{fill:#fff;}</style></defs><g transform="translate(162.6 25.5)"><g transform="translate(-162.599 -25.5)"><g transform="translate(121.41 12.042)"><path class="a" d="M973.548,122.64H965.5V102.507l.075-.893a7.885,7.885,0,0,1,1.32-3.634,6.109,6.109,0,0,1,2.968-1.886,5.57,5.57,0,0,1,1.119-.226,17.394,17.394,0,0,1,1.823-.075h11.669a6.026,6.026,0,0,1,2.515.453,6.542,6.542,0,0,1,2.037,1.635,6.379,6.379,0,0,1,1.6,4.477V122.64h-8.048V112.278h-9.016Zm0-16.108h9.016v-3.76h-9.016Z" transform="translate(-965.5 -95.791)"/><path class="a" d="M1192.948,122.735H1184.9V95.9h10.248l8.689,13.342V95.9h8.048v26.835h-8.048l-10.89-17.341Z" transform="translate(-1157.311 -95.886)"/><path class="a" d="M1427.148,122.64H1419.1V102.507l.075-.893a7.882,7.882,0,0,1,1.32-3.634,6.109,6.109,0,0,1,2.968-1.886,5.568,5.568,0,0,1,1.119-.226,17.39,17.39,0,0,1,1.823-.075h11.669a6.027,6.027,0,0,1,2.515.453,6.543,6.543,0,0,1,2.037,1.635,6.379,6.379,0,0,1,1.6,4.477V122.64h-8.048V112.278h-9.016Zm0-16.108h9.016v-3.76h-9.016Z" transform="translate(-1362.06 -95.791)"/><path class="a" d="M1656.081,122.81H1638.4V95.9h20.095a6.26,6.26,0,0,1,4.213,1.5,5,5,0,0,1,2.05,3.7v3.659a2.133,2.133,0,0,1-.164.767,13.314,13.314,0,0,1-.578,1.22,5.4,5.4,0,0,1-.591.855,8.193,8.193,0,0,1-.931.931l-.49.453-.34.226a5.087,5.087,0,0,1,1.358.968,7.4,7.4,0,0,1,1.132,1.408,8.821,8.821,0,0,1,.541,1.119,2.2,2.2,0,0,1,.163.742v3.609a4.451,4.451,0,0,1-.7,2.4,7.247,7.247,0,0,1-2.239,2.139,7.525,7.525,0,0,1-2.942,1.044,6.651,6.651,0,0,1-1.031.151l-1.031.038Zm-9.62-16.071h10v-3.873h-10Zm0,9.092h10v-4.275h-10Z" transform="translate(-1553.784 -95.886)"/><path class="a" d="M1868.534,115.756l-.038-.666v-11.8a7.907,7.907,0,0,1,.264-2.125A6.873,6.873,0,0,1,1875.8,95.8h11.971q4.024,0,5.885,1.748a6.721,6.721,0,0,1,1.861,5.143v13.355a6.64,6.64,0,0,1-.239,1.635,5.589,5.589,0,0,1-.8,1.748,7.751,7.751,0,0,1-2.477,2.465,6.144,6.144,0,0,1-3.144.742H1874.13a5.1,5.1,0,0,1-1.937-.453,5.628,5.628,0,0,1-2.653-2.2A7.921,7.921,0,0,1,1868.534,115.756Zm8.01-.075h10.927v-12.9h-10.927Z" transform="translate(-1754.945 -95.799)"/><path class="a" d="M2124.478,122.735H2103V95.9h8.048v19.868h13.417Z" transform="translate(-1959.961 -95.886)"/><path class="a" d="M2288.648,122.735H2280.6V95.9h8.048Z" transform="translate(-2115.228 -95.886)"/><path class="a" d="M2360.391,122.735h-8.979l6.564-13.417L2351.4,95.9h8.979l4.326,10.475h2.125l4.954-10.475h9.016l-6.6,13.417,6.715,13.417h-9.13l-4.942-10.475h-2.125Z" transform="translate(-2177.125 -95.886)"/></g><path class="a" d="M145.611,74.626a52.193,52.193,0,0,1-8.3.49l-.075-.163a18.436,18.436,0,0,1-4.477-6.061c-1.937-4.037-1.861-5.608-3.119-5.86s-2.955,1.735-6.023,3.534a50.682,50.682,0,0,1-7.394,3.269c-7.432-3.659-10.173-7.972-10.173-7.972a1.777,1.777,0,0,0-1.32-.767,1.673,1.673,0,0,0-1.157.49,32.393,32.393,0,0,1-10.311,8.249,48.183,48.183,0,0,1-7.1-3.244c-3.056-1.836-4.741-3.835-5.986-3.609S78.977,64.818,77,68.817a18.126,18.126,0,0,1-4.527,6.011,55.977,55.977,0,0,1-12.047-.868s-2.414-.163-2.716.666a.85.85,0,0,0,.3,1.132s4.074,1.358,10.412,7.545S75.8,104.14,75.8,104.14v-.126c.352-.163,11.129-5.131,29.149-4.791s28.52,5.043,28.708,5.131v.063s.163-.905.516-3.357.679-9.758,5.772-16.322,8.714-7.608,9.984-8.287,2.326-.956,1.786-2.012S149.232,74.337,145.611,74.626Zm-21.327-5.432c4.439-2.05,4.464-2.314,4.464-2.314a19.053,19.053,0,0,0,4.024,5.445,24.294,24.294,0,0,0,3.823,2.741A60.917,60.917,0,0,1,123.6,72.64a45.669,45.669,0,0,1-6.363-2.326A13.688,13.688,0,0,0,124.284,69.194Zm-19.994.616h.038L111.747,87h-14.8ZM76.952,72.275a19.188,19.188,0,0,0,4.074-5.407s.025.264,4.451,2.364a13.493,13.493,0,0,0,6.627,1.22,39.247,39.247,0,0,1-7.319,2.691,54.99,54.99,0,0,1-11.38,1.672,24.521,24.521,0,0,0,3.546-2.54ZM73.305,88.66a27.514,27.514,0,0,0-9.18-11.9,44.4,44.4,0,0,0,23.6-1.446A54.018,54.018,0,0,0,99.21,69.672L86.572,98.053a2.779,2.779,0,0,0-.151.528c-7.168,2.251-10.387,5.219-10.613,5.432a34.837,34.837,0,0,0-2.5-15.367Zm31.475,7.407a68,68,0,0,0-11.934.981l2.691-6.388h17.68L115.972,97A67.11,67.11,0,0,0,104.78,96.067Zm32.053-8.878c-4.15,6.9-3.269,16.31-3.169,17.177-.126-.126-3.383-3.357-10.89-5.747a3.057,3.057,0,0,0-.151-.528L110.087,69.936a44.636,44.636,0,0,0,13.065,5.6c14.31,3.848,21.893,1.584,21.893,1.584S141.2,79.933,136.834,87.189Z" transform="translate(-50.381 -53.416)"/><path class="a" d="M3.4,131.5a3.4,3.4,0,1,0,3.4,3.4,3.4,3.4,0,0,0-3.4-3.4Zm.918,6.036a.84.84,0,1,1,0,.013Z" transform="translate(0 -114.968)"/><path class="a" d="M813.4,131.5a3.4,3.4,0,1,0,3.4,3.4A3.4,3.4,0,0,0,813.4,131.5Zm-.918,6.036a.84.84,0,1,1,0,.013Z" transform="translate(-708.144 -114.968)"/><path class="a" d="M195.19,27.394a3.4,3.4,0,1,0-1.786-4.452A3.4,3.4,0,0,0,195.19,27.394Zm.075-2.98a2.025,2.025,0,1,1,1.056,2.653A2.025,2.025,0,0,1,195.266,24.414Z" transform="translate(-168.846 -18.256)"/><path class="a" d="M625,27.9a3.4,3.4,0,1,0-4.439-1.823A3.4,3.4,0,0,0,625,27.9Zm-2.691-4.074a2.025,2.025,0,1,1-1.091,1.1A2.025,2.025,0,0,1,622.313,23.828Z" transform="translate(-542.299 -18.689)"/><path class="a" d="M408.778,5.684a3.4,3.4,0,1,0-4.791.277A3.4,3.4,0,0,0,408.778,5.684Zm-3.772-2.54A2.025,2.025,0,1,1,405.169,6a2.025,2.025,0,0,1-.163-2.854Z" transform="translate(-352.191 -0.029)"/></g></g></svg>